<svg width="207" height="207" viewBox="0 0 207 207" fill="none" xmlns="http://www.w3.org/2000/svg">
<path d="M206.559 119.802C206.559 167.575 167.831 206.302 120.059 206.302C72.286 206.302 33.5586 167.575 33.5586 119.802C33.5586 72.0299 72.286 33.3025 120.059 33.3025C167.831 33.3025 206.559 72.0299 206.559 119.802Z" fill="#3E492A"/>
<path d="M50.0889 176.995L34.5297 188.649L27.8105 179.678L43.3697 168.024L45.4703 170.829L31.9281 180.972L34.446 184.334L47.9883 174.19L50.0889 176.995Z" fill="#3E492A"/>
<path d="M41.6427 165.144L24.4257 174.171L21.7733 169.113C21.2309 168.078 20.9838 167.142 21.0321 166.304C21.0729 165.451 21.3838 164.683 21.9646 163.999C22.5238 163.308 23.3207 162.692 24.3551 162.149C25.4746 161.562 26.4818 161.278 27.3767 161.297C28.2575 161.323 29.0358 161.601 29.7116 162.132C30.38 162.649 30.9594 163.375 31.4497 164.31L32.3413 166.011L39.9933 161.999L41.6427 165.144ZM30.1307 167.17L29.5066 165.979C29.2094 165.412 28.9012 165.014 28.5818 164.784C28.2409 164.547 27.8636 164.465 27.4499 164.537C27.0146 164.603 26.4923 164.796 25.883 165.115C25.2595 165.442 24.7824 165.755 24.4518 166.055C24.0996 166.348 23.9132 166.699 23.8924 167.107C23.8642 167.501 24.021 168.024 24.3628 168.676L24.9868 169.867L30.1307 167.17Z" fill="#3E492A"/>
<path d="M35.5521 152.993L17.1341 159.213L16.2049 156.462L27.8241 152.538L14.5001 151.414L13.7398 149.163L32.1577 142.943L33.0946 145.717L21.2935 149.702L34.8072 150.787L35.5521 152.993Z" fill="#3E492A"/>
<path d="M31.2295 139.197L12.0734 142.508L11.2601 137.802C11.113 136.95 11.0597 136.172 11.1002 135.467C11.138 134.746 11.3038 134.108 11.5977 133.554C11.8732 132.987 12.3031 132.515 12.8874 132.138C13.4717 131.761 14.2448 131.489 15.2065 131.323C15.9791 131.189 16.6603 131.185 17.2503 131.311C17.8375 131.42 18.3321 131.651 18.734 132.004C19.1202 132.36 19.4216 132.835 19.6382 133.431C19.6336 132.652 19.794 131.983 20.1194 131.424C20.4264 130.851 20.8827 130.391 21.4882 130.042C22.091 129.679 22.8497 129.418 23.7641 129.259C24.6786 129.101 25.511 129.079 26.2613 129.193C26.9932 129.294 27.6351 129.532 28.1871 129.908C28.7206 130.27 29.1642 130.77 29.5179 131.407C29.8688 132.028 30.1219 132.788 30.2772 133.687L31.2295 139.197ZM28.1651 136.122L27.9362 134.798C27.7536 133.742 27.3774 133.068 26.8075 132.777C26.2218 132.488 25.3929 132.437 24.3208 132.622C23.5483 132.755 22.9419 132.958 22.5016 133.228C22.0428 133.486 21.7319 133.849 21.569 134.315C21.4033 134.766 21.3804 135.338 21.5003 136.032L21.7088 137.238L28.1651 136.122ZM19.2965 137.655L19.0922 136.472C18.9723 135.779 18.7772 135.26 18.5068 134.917C18.2365 134.574 17.8762 134.369 17.426 134.3C16.973 134.216 16.4234 134.23 15.7769 134.342C15.099 134.459 14.5991 134.667 14.2774 134.966C13.9371 135.252 13.7434 135.635 13.6963 136.114C13.6334 136.596 13.6633 137.191 13.7859 137.901L13.9044 138.587L19.2965 137.655Z" fill="#3E492A"/>
<path d="M29.161 127.181L26.6172 127.209C26.6283 126.76 26.6002 126.385 26.5329 126.081C26.4494 125.762 26.2785 125.5 26.0203 125.295C25.7619 125.074 25.3679 124.894 24.8383 124.756C24.2928 124.618 23.5635 124.506 22.6505 124.42C21.7376 124.334 20.5765 124.242 19.1674 124.146L9.68112 123.625L9.57805 114.17L29.0169 113.958L29.0553 117.485L12.2803 117.668L12.3107 120.452L19.563 120.805C20.9879 120.886 22.2451 120.984 23.3344 121.1C24.4236 121.2 25.3535 121.374 26.1243 121.622C26.8788 121.853 27.4905 122.191 27.9594 122.634C28.4283 123.077 28.7627 123.665 28.9627 124.399C29.1467 125.133 29.2128 126.06 29.161 127.181Z" fill="#3E492A"/>
<path d="M29.4263 110.313L10.1622 107.704L11.2573 99.6176L13.7307 99.9526L13.1123 104.519L18.6537 105.269L19.14 101.678L21.5897 102.01L21.1033 105.601L27.4772 106.464L28.102 101.85L30.5278 102.179L29.4263 110.313Z" fill="#3E492A"/>
<path d="M30.964 99.965L12.2105 94.8444L13.1398 91.441L21.0116 93.5904L21.2013 92.8958L14.1576 87.7135L15.0869 84.3101L22.9576 90.2904L33.9162 89.1528L32.968 92.6257L23.4471 93.509L23.2574 94.2036L31.8933 96.5616L30.964 99.965Z" fill="#3E492A"/>
<path d="M34.3926 87.8807L18.2152 76.421L19.7577 72.9569L39.0982 77.313L37.7607 80.3167L33.3484 79.1926L31.9719 82.284L35.7496 84.8332L34.3926 87.8807ZM30.0574 81.0374L31.1313 78.6257L23.14 76.5122L30.0574 81.0374Z" fill="#3E492A"/>
<path d="M41.5236 73.281L27.1909 64.4707L25.5696 67.1082L23.3409 65.7383L28.4185 57.4781L30.6471 58.848L29.0509 61.4447L43.3836 70.2549L41.5236 73.281Z" fill="#3E492A"/>
<path d="M46.0464 66.2822L30.7598 54.2724L35.8009 47.8558L37.7637 49.3978L34.9169 53.0213L39.3141 56.476L41.553 53.6262L43.4968 55.1534L41.258 58.0031L46.3158 61.9767L49.1922 58.3155L51.1172 59.8278L46.0464 66.2822Z" fill="#3E492A"/>
<path d="M51.8169 58.775L50.0673 56.9282C50.4035 56.6317 50.66 56.3557 50.8366 56.1001C51.0139 55.822 51.09 55.5184 51.065 55.1895C51.0515 54.8496 50.9155 54.4385 50.6569 53.9562C50.3873 53.4622 49.9737 52.8512 49.4162 52.1231C48.8587 51.395 48.1364 50.4814 47.2494 49.3822L41.1825 42.0711L48.0471 35.5677L61.4169 49.6802L58.8557 52.1066L47.3181 39.928L45.2971 41.8427L49.9682 47.4015C50.8779 48.5013 51.6604 49.4901 52.3157 50.368C52.9827 51.2349 53.4874 52.0351 53.8297 52.7687C54.1727 53.4796 54.3411 54.1576 54.335 54.8026C54.3289 55.4475 54.1247 56.0928 53.7224 56.7383C53.3092 57.3723 52.674 58.0512 51.8169 58.775Z" fill="#3E492A"/>
<path d="M64.3445 47.4012L53.4172 31.323L56.3351 29.3399L60.9218 36.0888L61.6364 35.6031C62.7215 34.8656 63.7314 34.4017 64.6661 34.2115C65.5918 34.0079 66.4737 34.1243 67.3119 34.5606C68.1411 34.9837 68.9469 35.7709 69.7294 36.9221C70.341 37.822 70.7411 38.6527 70.9299 39.4143C71.1096 40.1627 71.0959 40.8684 70.8888 41.5315C70.695 42.1856 70.3365 42.7968 69.8135 43.365C69.2905 43.9333 68.6386 44.4828 67.8578 45.0134L64.3445 47.4012ZM65.9133 43.4331L66.5088 43.0284C67.0778 42.6417 67.4738 42.2565 67.6967 41.8729C67.9328 41.4802 67.9954 41.0315 67.8844 40.5265C67.7644 40.0084 67.466 39.3986 66.9894 38.6973C66.4095 37.8726 65.8058 37.3543 65.1782 37.1425C64.5638 36.9216 63.7935 37.126 62.8671 37.7555L62.3114 38.1333L65.9133 43.4331Z" fill="#3E492A"/>
<path d="M75.8527 39.8856L67.6129 22.2782L70.8083 20.7828L74.2568 28.1518L77.8652 26.4632L74.4168 19.0942L77.6122 17.5988L85.8519 35.2062L82.6565 36.7016L78.9334 28.7456L75.3249 30.4343L79.0481 38.3902L75.8527 39.8856Z" fill="#3E492A"/>
<path d="M88.9297 33.8459L84.1554 15.0013L87.5753 14.1349L89.5794 22.0449L90.4169 21.8328C91.7042 21.5066 92.8196 21.4138 93.763 21.5544C94.7025 21.6795 95.4916 22.0903 96.1302 22.7868C96.7649 23.4678 97.2532 24.483 97.595 25.8323C97.8623 26.887 97.9466 27.8064 97.8482 28.5906C97.7614 29.3554 97.5151 30.012 97.1094 30.5604C96.7036 31.1089 96.1579 31.5607 95.4722 31.916C94.7864 32.2713 93.9782 32.5669 93.0476 32.8026L88.9297 33.8459ZM91.7603 30.653L92.4815 30.4703C93.1329 30.3052 93.6367 30.0785 93.9928 29.7903C94.3489 29.502 94.561 29.1016 94.6293 28.5892C94.6936 28.0612 94.6138 27.3882 94.3901 26.5701C94.1425 25.5929 93.76 24.8976 93.2426 24.484C92.7252 24.0704 91.9314 23.9992 90.8612 24.2703L90.1865 24.4412L91.7603 30.653ZM100.748 30.8516L95.974 12.007L99.3939 11.1406L104.168 29.9852L100.748 30.8516Z" fill="#3E492A"/>
<path d="M108.1 29.669L106.547 10.2912L114.681 9.63932L114.881 12.1273L110.287 12.4954L110.734 18.0696L114.346 17.7801L114.544 20.2442L110.931 20.5337L111.445 26.9451L116.086 26.5732L116.282 29.0134L108.1 29.669Z" fill="#3E492A"/>
<path d="M135.141 34.1972L135.342 30.4934L124.859 29.0348L127.538 9.78031L131.032 10.2665L128.69 27.0964L133.017 27.6984L135.358 10.8685L138.853 11.3547L136.511 28.1846L138.389 28.4459L137.542 34.5312L135.141 34.1972Z" fill="#3E492A"/>
<path d="M141.098 31.759L146.633 13.1234L154.455 15.4465L153.745 17.8392L149.327 16.5274L147.735 21.888L151.209 22.9197L150.506 25.2894L147.032 24.2577L145.2 30.4235L149.664 31.749L148.967 34.0957L141.098 31.759Z" fill="#3E492A"/>
<path d="M151.489 34.9678L159.596 17.299L162.803 18.7703L159.41 26.1651L163.031 27.8265L166.424 20.4318L169.63 21.9031L161.523 39.5719L158.317 38.1006L161.98 30.1169L158.359 28.4555L154.696 36.4391L151.489 34.9678Z" fill="#3E492A"/>
<path d="M164.452 40.9782L175.745 25.1551L178.617 27.2046L173.876 33.8464L174.58 34.3484C175.661 35.1199 176.452 35.911 176.955 36.7217C177.467 37.5195 177.663 38.3871 177.544 39.3245C177.435 40.249 176.976 41.2777 176.167 42.4107C175.535 43.2963 174.888 43.955 174.226 44.3867C173.587 44.8147 172.926 45.0512 172.246 45.0961C171.565 45.141 170.867 45.0166 170.153 44.723C169.439 44.4294 168.691 44.0037 167.909 43.446L164.452 40.9782ZM168.718 41.0743L169.323 41.5065C169.87 41.8969 170.369 42.1348 170.819 42.2202C171.269 42.3056 171.712 42.2087 172.147 41.9295C172.591 41.6374 173.053 41.1415 173.533 40.442C174.118 39.6215 174.402 38.8802 174.383 38.2181C174.364 37.5559 173.905 36.9042 173.007 36.2628L172.44 35.8585L168.718 41.0743ZM174.375 48.061L185.669 32.2379L188.541 34.2874L177.247 50.1106L174.375 48.061Z" fill="#3E492A"/>
<path d="M110.135 83.6078L107.686 82.2061V89.9912L108.495 90.4441L110.135 86.0447V83.6078Z" fill="white"/>
<path d="M124.571 74.9169L123.849 72.8467H127.546V71.5743L126.211 70.7764L125.818 70H120.612L121.159 70.8842L120 72.3506L118.819 70.8842L119.366 70H114.16L113.789 70.7764L112.433 71.5743V72.8467H116.151L115.429 74.9169H102V77.1598L112.608 83.1981L108.714 93.6358L115.429 89.8619L120 77.9793L124.571 89.8619L131.264 93.6358L127.371 83.1981L138 77.1598V74.9169H124.571Z" fill="white"/>
<path d="M129.863 86.0447L131.504 90.4441L132.291 89.9912V82.2061L129.863 83.6078V86.0447Z" fill="white"/>
<path d="M120.001 93.7221L115.758 91.3284L112.783 92.9027L120.001 97.0001L127.196 92.9027L124.222 91.3284L120.001 93.7221Z" fill="white"/>
<path d="M84.2753 114.217H81.0145L80.997 112.608H83.8446C84.3251 112.608 84.7323 112.538 85.0663 112.397C85.4061 112.251 85.6639 112.043 85.8397 111.773C86.0155 111.498 86.1034 111.167 86.1034 110.78C86.1034 110.353 86.0214 110.004 85.8573 109.734C85.6932 109.465 85.4413 109.269 85.1014 109.146C84.7675 109.022 84.3397 108.961 83.8182 108.961H81.6825V120H79.4764V107.203H83.8182C84.5214 107.203 85.1483 107.271 85.6991 107.405C86.2557 107.54 86.7274 107.751 87.1141 108.038C87.5067 108.319 87.8026 108.677 88.0018 109.11C88.2069 109.544 88.3095 110.06 88.3095 110.657C88.3095 111.185 88.1835 111.668 87.9315 112.107C87.6796 112.541 87.3075 112.896 86.8153 113.171C86.3231 113.446 85.7108 113.61 84.9784 113.663L84.2753 114.217ZM84.1786 120H80.3202L81.3134 118.251H84.1786C84.6766 118.251 85.0927 118.169 85.4266 118.005C85.7606 117.835 86.0096 117.604 86.1737 117.311C86.3436 117.012 86.4286 116.663 86.4286 116.265C86.4286 115.849 86.3554 115.488 86.2089 115.184C86.0624 114.873 85.8309 114.636 85.5145 114.472C85.1981 114.302 84.785 114.217 84.2753 114.217H81.7968L81.8143 112.608H85.0399L85.5409 113.215C86.244 113.238 86.8212 113.394 87.2723 113.681C87.7294 113.968 88.0692 114.34 88.2919 114.797C88.5145 115.254 88.6259 115.746 88.6259 116.273C88.6259 117.088 88.4471 117.771 88.0897 118.321C87.7382 118.872 87.2313 119.291 86.5692 119.578C85.9071 119.859 85.1102 120 84.1786 120ZM100.896 114.463V116.133H95.9742V114.463H100.896ZM96.5895 110.49V120H94.4713V110.49H96.5895ZM102.425 110.49V120H100.307V110.49H102.425ZM109.686 118.093V113.558C109.686 113.218 109.624 112.925 109.501 112.679C109.378 112.433 109.19 112.242 108.938 112.107C108.692 111.973 108.382 111.905 108.007 111.905C107.661 111.905 107.362 111.964 107.11 112.081C106.858 112.198 106.662 112.356 106.521 112.556C106.381 112.755 106.311 112.98 106.311 113.232H104.201C104.201 112.857 104.292 112.494 104.474 112.143C104.655 111.791 104.919 111.478 105.265 111.202C105.61 110.927 106.023 110.71 106.504 110.552C106.984 110.394 107.523 110.314 108.121 110.314C108.836 110.314 109.469 110.435 110.019 110.675C110.576 110.915 111.013 111.278 111.329 111.765C111.651 112.245 111.812 112.849 111.812 113.575V117.803C111.812 118.236 111.842 118.626 111.9 118.972C111.965 119.312 112.056 119.607 112.173 119.859V120H110.002C109.902 119.771 109.823 119.481 109.765 119.13C109.712 118.772 109.686 118.427 109.686 118.093ZM109.993 114.217L110.011 115.526H108.49C108.098 115.526 107.752 115.564 107.453 115.641C107.154 115.711 106.905 115.816 106.706 115.957C106.507 116.098 106.357 116.268 106.258 116.467C106.158 116.666 106.108 116.892 106.108 117.144C106.108 117.396 106.167 117.627 106.284 117.838C106.401 118.043 106.571 118.204 106.794 118.321C107.022 118.438 107.298 118.497 107.62 118.497C108.054 118.497 108.432 118.409 108.754 118.233C109.082 118.052 109.34 117.832 109.527 117.574C109.715 117.311 109.814 117.062 109.826 116.827L110.512 117.768C110.441 118.008 110.321 118.266 110.151 118.541C109.981 118.816 109.759 119.08 109.483 119.332C109.214 119.578 108.889 119.78 108.508 119.938C108.133 120.097 107.699 120.176 107.207 120.176C106.586 120.176 106.032 120.053 105.546 119.807C105.06 119.555 104.679 119.218 104.403 118.796C104.128 118.368 103.99 117.885 103.99 117.346C103.99 116.842 104.084 116.396 104.271 116.01C104.465 115.617 104.746 115.289 105.115 115.025C105.49 114.762 105.947 114.562 106.486 114.428C107.025 114.287 107.641 114.217 108.332 114.217H109.993ZM120.057 110.49V112.178H115.416V110.49H120.057ZM121.718 110.49V120H119.6V110.49H121.718ZM114.898 110.49H116.99L116.735 115.192C116.7 115.89 116.629 116.505 116.524 117.038C116.424 117.565 116.289 118.02 116.119 118.4C115.95 118.775 115.742 119.08 115.495 119.314C115.249 119.549 114.962 119.722 114.634 119.833C114.306 119.944 113.937 120 113.527 120H112.868L112.859 118.26L113.193 118.233C113.409 118.216 113.597 118.16 113.755 118.066C113.913 117.967 114.048 117.826 114.159 117.645C114.277 117.463 114.37 117.229 114.441 116.941C114.517 116.654 114.576 116.314 114.617 115.922C114.663 115.529 114.699 115.072 114.722 114.551L114.898 110.49ZM125.797 116.906L129.532 110.49H131.65V120H129.532V113.575L125.797 120H123.678V110.49H125.797V116.906ZM141.169 110.49V120H139.051V110.49H141.169ZM140.272 114.7V116.379C140.015 116.49 139.725 116.593 139.402 116.687C139.086 116.774 138.752 116.848 138.4 116.906C138.049 116.959 137.694 116.985 137.337 116.985C136.499 116.985 135.775 116.856 135.166 116.599C134.563 116.341 134.097 115.945 133.769 115.412C133.446 114.873 133.285 114.19 133.285 113.364V110.481H135.395V113.364C135.395 113.839 135.465 114.217 135.606 114.498C135.752 114.779 135.969 114.981 136.256 115.104C136.543 115.228 136.903 115.289 137.337 115.289C137.7 115.289 138.043 115.266 138.365 115.219C138.688 115.166 139.007 115.096 139.323 115.008C139.64 114.92 139.956 114.817 140.272 114.7ZM145.256 116.906L148.992 110.49H151.11V120H148.992V113.575L145.256 120H143.138V110.49H145.256V116.906ZM155.179 116.906L158.915 110.49H161.033V120H158.915V113.575L155.179 120H153.061V110.49H155.179V116.906ZM90.4807 127.324H92.1946C92.1946 127.846 92.1213 128.276 91.9748 128.616C91.8342 128.95 91.6233 129.226 91.342 129.442C91.0666 129.653 90.7239 129.823 90.3137 129.952C89.9094 130.081 89.4407 130.198 88.9075 130.304C88.4153 130.409 87.97 130.576 87.5715 130.805C87.1789 131.027 86.8479 131.341 86.5784 131.745C86.3147 132.144 86.1243 132.656 86.0071 133.283C85.8899 133.91 85.8547 134.675 85.9016 135.577V136.175L84.2229 136.324V135.727C84.2229 134.607 84.3254 133.632 84.5305 132.8C84.7356 131.968 85.0256 131.268 85.4006 130.699C85.7815 130.125 86.2327 129.668 86.7541 129.328C87.2815 128.988 87.8674 128.754 88.512 128.625C88.9514 128.531 89.3176 128.438 89.6106 128.344C89.9036 128.244 90.1203 128.118 90.261 127.966C90.4075 127.808 90.4807 127.594 90.4807 127.324ZM88.9953 132.026C89.6282 132.026 90.1907 132.138 90.6828 132.36C91.175 132.577 91.5911 132.882 91.9309 133.274C92.2707 133.667 92.5286 134.13 92.7043 134.663C92.886 135.196 92.9768 135.776 92.9768 136.403V136.597C92.9768 137.253 92.8801 137.859 92.6868 138.416C92.4934 138.973 92.2092 139.459 91.8342 139.875C91.4592 140.285 90.9993 140.607 90.4543 140.842C89.9153 141.07 89.2971 141.185 88.5998 141.185C87.9084 141.185 87.2903 141.064 86.7453 140.824C86.2004 140.584 85.7405 140.25 85.3655 139.822C84.9905 139.389 84.7063 138.882 84.5129 138.302C84.3196 137.722 84.2229 137.089 84.2229 136.403V136.21C84.217 136.087 84.2493 135.967 84.3196 135.85C84.3957 135.732 84.4866 135.606 84.592 135.472C84.6975 135.337 84.7912 135.182 84.8733 135.006C85.1662 134.414 85.512 133.896 85.9104 133.45C86.3088 133.005 86.7629 132.656 87.2727 132.404C87.7883 132.152 88.3625 132.026 88.9953 132.026ZM88.5823 133.705C88.0549 133.705 87.6243 133.831 87.2903 134.083C86.9621 134.329 86.719 134.657 86.5608 135.067C86.4084 135.478 86.3323 135.923 86.3323 136.403V136.597C86.3323 136.989 86.3762 137.361 86.4641 137.713C86.552 138.064 86.6838 138.375 86.8596 138.645C87.0412 138.908 87.2756 139.116 87.5627 139.269C87.8557 139.421 88.2014 139.497 88.5998 139.497C89.0041 139.497 89.3469 139.421 89.6282 139.269C89.9153 139.116 90.1467 138.908 90.3225 138.645C90.5041 138.375 90.636 138.064 90.718 137.713C90.8059 137.361 90.8498 136.989 90.8498 136.597V136.403C90.8498 136.04 90.8059 135.697 90.718 135.375C90.636 135.053 90.5041 134.769 90.3225 134.522C90.1409 134.271 89.9065 134.071 89.6194 133.925C89.3323 133.778 88.9866 133.705 88.5823 133.705ZM93.8736 136.351V136.148C93.8736 135.463 93.9732 134.827 94.1725 134.241C94.3717 133.649 94.6588 133.137 95.0338 132.703C95.4146 132.264 95.8775 131.924 96.4225 131.684C96.9732 131.438 97.5943 131.314 98.2857 131.314C98.983 131.314 99.6041 131.438 100.149 131.684C100.7 131.924 101.166 132.264 101.546 132.703C101.927 133.137 102.217 133.649 102.417 134.241C102.616 134.827 102.715 135.463 102.715 136.148V136.351C102.715 137.036 102.616 137.672 102.417 138.258C102.217 138.844 101.927 139.356 101.546 139.796C101.166 140.229 100.703 140.569 100.158 140.815C99.6129 141.056 98.9947 141.176 98.3033 141.176C97.6061 141.176 96.982 141.056 96.4312 140.815C95.8863 140.569 95.4234 140.229 95.0426 139.796C94.6617 139.356 94.3717 138.844 94.1725 138.258C93.9732 137.672 93.8736 137.036 93.8736 136.351ZM95.9918 136.148V136.351C95.9918 136.778 96.0357 137.183 96.1236 137.563C96.2115 137.944 96.3492 138.278 96.5367 138.565C96.7242 138.853 96.9645 139.078 97.2574 139.242C97.5504 139.406 97.899 139.488 98.3033 139.488C98.6959 139.488 99.0357 139.406 99.3228 139.242C99.6158 139.078 99.8561 138.853 100.044 138.565C100.231 138.278 100.369 137.944 100.457 137.563C100.55 137.183 100.597 136.778 100.597 136.351V136.148C100.597 135.727 100.55 135.328 100.457 134.953C100.369 134.572 100.228 134.235 100.035 133.942C99.8473 133.649 99.607 133.421 99.3141 133.257C99.027 133.087 98.6842 133.002 98.2857 133.002C97.8873 133.002 97.5416 133.087 97.2486 133.257C96.9615 133.421 96.7242 133.649 96.5367 133.942C96.3492 134.235 96.2115 134.572 96.1236 134.953C96.0357 135.328 95.9918 135.727 95.9918 136.148ZM110.38 131.49V133.178H105.739V131.49H110.38ZM112.041 131.49V141H109.923V131.49H112.041ZM105.221 131.49H107.312L107.058 136.192C107.022 136.89 106.952 137.505 106.847 138.038C106.747 138.565 106.612 139.02 106.442 139.4C106.272 139.775 106.064 140.08 105.818 140.314C105.572 140.549 105.285 140.722 104.957 140.833C104.629 140.944 104.26 141 103.85 141H103.19L103.182 139.26L103.516 139.233C103.732 139.216 103.92 139.16 104.078 139.066C104.236 138.967 104.371 138.826 104.482 138.645C104.6 138.463 104.693 138.229 104.764 137.941C104.84 137.654 104.898 137.314 104.939 136.922C104.986 136.529 105.021 136.072 105.045 135.551L105.221 131.49ZM115.504 134.514H118.308C119.128 134.514 119.826 134.651 120.4 134.927C120.974 135.202 121.41 135.586 121.709 136.078C122.014 136.564 122.166 137.121 122.166 137.748C122.166 138.211 122.081 138.642 121.911 139.04C121.742 139.433 121.49 139.775 121.156 140.068C120.827 140.361 120.423 140.59 119.943 140.754C119.468 140.918 118.923 141 118.308 141H114.098V131.49H116.225V139.321H118.308C118.73 139.321 119.067 139.248 119.319 139.102C119.571 138.955 119.752 138.765 119.864 138.53C119.981 138.296 120.039 138.047 120.039 137.783C120.039 137.514 119.981 137.259 119.864 137.019C119.752 136.778 119.571 136.582 119.319 136.43C119.067 136.277 118.73 136.201 118.308 136.201H115.504V134.514ZM123.573 131.49H125.691V139.312H128.706V131.49H130.841V139.312H133.847V131.49H135.966V141H123.573V131.49ZM137.486 136.351V136.148C137.486 135.463 137.586 134.827 137.785 134.241C137.984 133.649 138.272 133.137 138.647 132.703C139.027 132.264 139.49 131.924 140.035 131.684C140.586 131.438 141.207 131.314 141.898 131.314C142.596 131.314 143.217 131.438 143.762 131.684C144.313 131.924 144.778 132.264 145.159 132.703C145.54 133.137 145.83 133.649 146.029 134.241C146.229 134.827 146.328 135.463 146.328 136.148V136.351C146.328 137.036 146.229 137.672 146.029 138.258C145.83 138.844 145.54 139.356 145.159 139.796C144.778 140.229 144.315 140.569 143.771 140.815C143.226 141.056 142.607 141.176 141.916 141.176C141.219 141.176 140.595 141.056 140.044 140.815C139.499 140.569 139.036 140.229 138.655 139.796C138.274 139.356 137.984 138.844 137.785 138.258C137.586 137.672 137.486 137.036 137.486 136.351ZM139.605 136.148V136.351C139.605 136.778 139.648 137.183 139.736 137.563C139.824 137.944 139.962 138.278 140.149 138.565C140.337 138.853 140.577 139.078 140.87 139.242C141.163 139.406 141.512 139.488 141.916 139.488C142.309 139.488 142.648 139.406 142.936 139.242C143.229 139.078 143.469 138.853 143.656 138.565C143.844 138.278 143.981 137.944 144.069 137.563C144.163 137.183 144.21 136.778 144.21 136.351V136.148C144.21 135.727 144.163 135.328 144.069 134.953C143.981 134.572 143.841 134.235 143.647 133.942C143.46 133.649 143.22 133.421 142.927 133.257C142.64 133.087 142.297 133.002 141.898 133.002C141.5 133.002 141.154 133.087 140.861 133.257C140.574 133.421 140.337 133.649 140.149 133.942C139.962 134.235 139.824 134.572 139.736 134.953C139.648 135.328 139.605 135.727 139.605 136.148ZM149.932 137.906L153.667 131.49H155.786V141H153.667V134.575L149.932 141H147.814V131.49H149.932V137.906ZM153.105 127.834H154.678C154.678 128.32 154.561 128.751 154.327 129.126C154.098 129.495 153.77 129.785 153.342 129.996C152.92 130.207 152.416 130.312 151.83 130.312C150.946 130.312 150.246 130.084 149.73 129.627C149.22 129.164 148.965 128.566 148.965 127.834H150.538C150.538 128.162 150.635 128.452 150.829 128.704C151.028 128.95 151.362 129.073 151.83 129.073C152.293 129.073 152.621 128.95 152.815 128.704C153.008 128.452 153.105 128.162 153.105 127.834ZM73.302 160.093V155.558C73.302 155.218 73.2404 154.925 73.1174 154.679C72.9943 154.433 72.8068 154.242 72.5549 154.107C72.3088 153.973 71.9982 153.905 71.6232 153.905C71.2775 153.905 70.9787 153.964 70.7268 154.081C70.4748 154.198 70.2785 154.356 70.1379 154.556C69.9973 154.755 69.927 154.98 69.927 155.232H67.8176C67.8176 154.857 67.9084 154.494 68.09 154.143C68.2717 153.791 68.5354 153.478 68.8811 153.202C69.2268 152.927 69.6398 152.71 70.1203 152.552C70.6008 152.394 71.1398 152.314 71.7375 152.314C72.4523 152.314 73.0852 152.435 73.6359 152.675C74.1926 152.915 74.6291 153.278 74.9455 153.765C75.2678 154.245 75.4289 154.849 75.4289 155.575V159.803C75.4289 160.236 75.4582 160.626 75.5168 160.972C75.5812 161.312 75.6721 161.607 75.7893 161.859V162H73.6184C73.5187 161.771 73.4396 161.481 73.3811 161.13C73.3283 160.772 73.302 160.427 73.302 160.093ZM73.6096 156.217L73.6271 157.526H72.1066C71.7141 157.526 71.3684 157.564 71.0695 157.641C70.7707 157.711 70.5217 157.816 70.3225 157.957C70.1232 158.098 69.9738 158.268 69.8742 158.467C69.7746 158.666 69.7248 158.892 69.7248 159.144C69.7248 159.396 69.7834 159.627 69.9006 159.838C70.0178 160.043 70.1877 160.204 70.4104 160.321C70.6389 160.438 70.9143 160.497 71.2365 160.497C71.6701 160.497 72.048 160.409 72.3703 160.233C72.6984 160.052 72.9562 159.832 73.1437 159.574C73.3312 159.311 73.4309 159.062 73.4426 158.827L74.1281 159.768C74.0578 160.008 73.9377 160.266 73.7678 160.541C73.5979 160.816 73.3752 161.08 73.0998 161.332C72.8303 161.578 72.5051 161.78 72.1242 161.938C71.7492 162.097 71.3156 162.176 70.8234 162.176C70.2023 162.176 69.6486 162.053 69.1623 161.807C68.676 161.555 68.2951 161.218 68.0197 160.796C67.7443 160.368 67.6066 159.885 67.6066 159.346C67.6066 158.842 67.7004 158.396 67.8879 158.01C68.0812 157.617 68.3625 157.289 68.7316 157.025C69.1066 156.762 69.5637 156.562 70.1027 156.428C70.6418 156.287 71.257 156.217 71.9484 156.217H73.6096ZM81.1685 160.488C81.5142 160.488 81.8248 160.421 82.1002 160.286C82.3814 160.146 82.607 159.952 82.7769 159.706C82.9527 159.46 83.0494 159.176 83.067 158.854H85.0621C85.0504 159.469 84.8687 160.028 84.5171 160.532C84.1656 161.036 83.6998 161.438 83.1197 161.736C82.5396 162.029 81.898 162.176 81.1949 162.176C80.4683 162.176 79.8355 162.053 79.2964 161.807C78.7574 161.555 78.3091 161.209 77.9517 160.77C77.5943 160.33 77.3248 159.823 77.1431 159.249C76.9673 158.675 76.8795 158.06 76.8795 157.403V157.096C76.8795 156.439 76.9673 155.824 77.1431 155.25C77.3248 154.67 77.5943 154.16 77.9517 153.721C78.3091 153.281 78.7574 152.938 79.2964 152.692C79.8355 152.44 80.4654 152.314 81.1861 152.314C81.9478 152.314 82.6158 152.467 83.19 152.771C83.7642 153.07 84.2154 153.489 84.5435 154.028C84.8775 154.562 85.0504 155.183 85.0621 155.892H83.067C83.0494 155.54 82.9615 155.224 82.8033 154.942C82.6509 154.655 82.4341 154.427 82.1529 154.257C81.8775 154.087 81.5464 154.002 81.1597 154.002C80.732 154.002 80.3775 154.09 80.0962 154.266C79.815 154.436 79.5953 154.67 79.4371 154.969C79.2789 155.262 79.1646 155.593 79.0943 155.962C79.0298 156.325 78.9976 156.703 78.9976 157.096V157.403C78.9976 157.796 79.0298 158.177 79.0943 158.546C79.1587 158.915 79.2701 159.246 79.4283 159.539C79.5923 159.826 79.815 160.058 80.0962 160.233C80.3775 160.403 80.7349 160.488 81.1685 160.488ZM90.2128 160.488C90.5585 160.488 90.8691 160.421 91.1445 160.286C91.4257 160.146 91.6513 159.952 91.8212 159.706C91.997 159.46 92.0937 159.176 92.1113 158.854H94.1064C94.0947 159.469 93.913 160.028 93.5614 160.532C93.2099 161.036 92.7441 161.438 92.164 161.736C91.5839 162.029 90.9423 162.176 90.2392 162.176C89.5126 162.176 88.8798 162.053 88.3407 161.807C87.8017 161.555 87.3534 161.209 86.996 160.77C86.6386 160.33 86.3691 159.823 86.1874 159.249C86.0116 158.675 85.9238 158.06 85.9238 157.403V157.096C85.9238 156.439 86.0116 155.824 86.1874 155.25C86.3691 154.67 86.6386 154.16 86.996 153.721C87.3534 153.281 87.8017 152.938 88.3407 152.692C88.8798 152.44 89.5097 152.314 90.2304 152.314C90.9921 152.314 91.6601 152.467 92.2343 152.771C92.8085 153.07 93.2597 153.489 93.5878 154.028C93.9218 154.562 94.0947 155.183 94.1064 155.892H92.1113C92.0937 155.54 92.0058 155.224 91.8476 154.942C91.6952 154.655 91.4784 154.427 91.1972 154.257C90.9218 154.087 90.5907 154.002 90.204 154.002C89.7763 154.002 89.4218 154.09 89.1405 154.266C88.8593 154.436 88.6396 154.67 88.4814 154.969C88.3232 155.262 88.2089 155.593 88.1386 155.962C88.0741 156.325 88.0419 156.703 88.0419 157.096V157.403C88.0419 157.796 88.0741 158.177 88.1386 158.546C88.203 158.915 88.3144 159.246 88.4726 159.539C88.6366 159.826 88.8593 160.058 89.1405 160.233C89.4218 160.403 89.7792 160.488 90.2128 160.488ZM94.968 157.351V157.148C94.968 156.463 95.0677 155.827 95.2669 155.241C95.4661 154.649 95.7532 154.137 96.1282 153.703C96.5091 153.264 96.972 152.924 97.5169 152.684C98.0677 152.438 98.6888 152.314 99.3802 152.314C100.077 152.314 100.699 152.438 101.243 152.684C101.794 152.924 102.26 153.264 102.641 153.703C103.022 154.137 103.312 154.649 103.511 155.241C103.71 155.827 103.81 156.463 103.81 157.148V157.351C103.81 158.036 103.71 158.672 103.511 159.258C103.312 159.844 103.022 160.356 102.641 160.796C102.26 161.229 101.797 161.569 101.252 161.815C100.707 162.056 100.089 162.176 99.3977 162.176C98.7005 162.176 98.0764 162.056 97.5257 161.815C96.9807 161.569 96.5179 161.229 96.137 160.796C95.7561 160.356 95.4661 159.844 95.2669 159.258C95.0677 158.672 94.968 158.036 94.968 157.351ZM97.0862 157.148V157.351C97.0862 157.778 97.1302 158.183 97.218 158.563C97.3059 158.944 97.4436 159.278 97.6311 159.565C97.8186 159.853 98.0589 160.078 98.3518 160.242C98.6448 160.406 98.9934 160.488 99.3977 160.488C99.7903 160.488 100.13 160.406 100.417 160.242C100.71 160.078 100.95 159.853 101.138 159.565C101.325 159.278 101.463 158.944 101.551 158.563C101.645 158.183 101.692 157.778 101.692 157.351V157.148C101.692 156.727 101.645 156.328 101.551 155.953C101.463 155.572 101.323 155.235 101.129 154.942C100.942 154.649 100.701 154.421 100.408 154.257C100.121 154.087 99.7786 154.002 99.3802 154.002C98.9817 154.002 98.636 154.087 98.343 154.257C98.0559 154.421 97.8186 154.649 97.6311 154.942C97.4436 155.235 97.3059 155.572 97.218 155.953C97.1302 156.328 97.0862 156.727 97.0862 157.148ZM107.352 154.318V165.656H105.234V152.49H107.185L107.352 154.318ZM113.548 157.157V157.342C113.548 158.033 113.466 158.675 113.302 159.267C113.144 159.853 112.907 160.365 112.59 160.805C112.28 161.238 111.896 161.575 111.439 161.815C110.982 162.056 110.455 162.176 109.857 162.176C109.265 162.176 108.747 162.067 108.301 161.851C107.862 161.628 107.49 161.314 107.185 160.91C106.881 160.506 106.634 160.031 106.447 159.486C106.265 158.936 106.136 158.332 106.06 157.676V156.964C106.136 156.267 106.265 155.634 106.447 155.065C106.634 154.497 106.881 154.008 107.185 153.598C107.49 153.188 107.862 152.871 108.301 152.648C108.741 152.426 109.254 152.314 109.839 152.314C110.437 152.314 110.967 152.432 111.43 152.666C111.893 152.895 112.283 153.223 112.599 153.65C112.916 154.072 113.153 154.582 113.311 155.18C113.469 155.771 113.548 156.431 113.548 157.157ZM111.43 157.342V157.157C111.43 156.718 111.389 156.311 111.307 155.936C111.225 155.555 111.096 155.221 110.921 154.934C110.745 154.646 110.519 154.424 110.244 154.266C109.974 154.102 109.649 154.02 109.268 154.02C108.893 154.02 108.571 154.084 108.301 154.213C108.032 154.336 107.806 154.509 107.625 154.731C107.443 154.954 107.302 155.215 107.203 155.514C107.103 155.807 107.033 156.126 106.992 156.472V158.177C107.062 158.599 107.182 158.985 107.352 159.337C107.522 159.688 107.762 159.97 108.073 160.181C108.389 160.386 108.794 160.488 109.286 160.488C109.667 160.488 109.992 160.406 110.261 160.242C110.531 160.078 110.751 159.853 110.921 159.565C111.096 159.272 111.225 158.936 111.307 158.555C111.389 158.174 111.43 157.77 111.43 157.342ZM118.822 152.49V162H116.695V152.49H118.822ZM121.942 152.49V154.16H113.628V152.49H121.942ZM125.186 158.906L128.921 152.49H131.039V162H128.921V155.575L125.186 162H123.068V152.49H125.186V158.906ZM138.572 159.434L141.402 152.49H143.239L139.293 162H137.851L133.914 152.49H135.751L138.572 159.434ZM135.206 152.49V162H133.088V152.49H135.206ZM141.938 162V152.49H144.065V162H141.938ZM150.271 162.176C149.567 162.176 148.932 162.062 148.363 161.833C147.801 161.599 147.32 161.273 146.922 160.857C146.529 160.441 146.228 159.952 146.017 159.39C145.806 158.827 145.7 158.221 145.7 157.57V157.219C145.7 156.475 145.809 155.801 146.025 155.197C146.242 154.594 146.544 154.078 146.931 153.65C147.317 153.217 147.774 152.886 148.302 152.657C148.829 152.429 149.4 152.314 150.016 152.314C150.695 152.314 151.29 152.429 151.8 152.657C152.31 152.886 152.732 153.208 153.066 153.624C153.405 154.034 153.657 154.523 153.821 155.092C153.991 155.66 154.076 156.287 154.076 156.973V157.878H146.729V156.357H151.984V156.19C151.973 155.81 151.897 155.452 151.756 155.118C151.621 154.784 151.413 154.515 151.132 154.31C150.851 154.104 150.476 154.002 150.007 154.002C149.655 154.002 149.342 154.078 149.066 154.23C148.797 154.377 148.571 154.591 148.39 154.872C148.208 155.153 148.067 155.493 147.968 155.892C147.874 156.284 147.827 156.727 147.827 157.219V157.57C147.827 157.986 147.883 158.373 147.994 158.73C148.111 159.082 148.281 159.39 148.504 159.653C148.727 159.917 148.996 160.125 149.313 160.277C149.629 160.424 149.989 160.497 150.394 160.497C150.903 160.497 151.357 160.395 151.756 160.189C152.154 159.984 152.5 159.694 152.793 159.319L153.909 160.4C153.704 160.699 153.438 160.986 153.109 161.262C152.781 161.531 152.38 161.751 151.905 161.921C151.437 162.091 150.892 162.176 150.271 162.176ZM161.864 156.463V158.133H156.942V156.463H161.864ZM157.557 152.49V162H155.439V152.49H157.557ZM163.393 152.49V162H161.275V152.49H163.393ZM169.704 152.49V162H167.577V152.49H169.704ZM172.824 152.49V154.16H164.51V152.49H172.824Z" fill="white"/>
</svg>
