<svg width="40" height="40" viewBox="0 0 40 40" fill="none" xmlns="http://www.w3.org/2000/svg">
<g opacity="0.4">
<path fill-rule="evenodd" clip-rule="evenodd" d="M20 40C31.0457 40 40 31.0457 40 20C40 8.9543 31.0457 0 20 0C8.9543 0 0 8.9543 0 20C0 31.0457 8.9543 40 20 40ZM18.4005 22.6138H21.2211C22.5129 22.6138 23.6366 22.394 24.5921 21.9545C25.5476 21.5149 26.289 20.883 26.8164 20.0589C27.3515 19.2347 27.619 18.2457 27.619 17.0918C27.619 15.9929 27.3592 15.0196 26.8394 14.1719C26.3272 13.3242 25.5934 12.657 24.6379 12.1703C23.6824 11.6758 22.5435 11.4286 21.2211 11.4286H14.6741V19.635H12.381V22.6138H14.6741V23.4144H12.381V26.3815H14.6741V28.5714H18.4005V26.3815H22.0237V23.4144H18.4005V22.6138ZM18.4005 19.635H21.1065C21.7868 19.635 22.3257 19.529 22.7231 19.3171C23.1206 19.0973 23.4073 18.7991 23.5831 18.4223C23.7589 18.0377 23.8468 17.602 23.8468 17.1154C23.8468 16.6287 23.7512 16.1813 23.5601 15.7732C23.369 15.365 23.0786 15.0392 22.6887 14.7959C22.3065 14.5447 21.8212 14.4192 21.2326 14.4192H18.4005V19.635Z" fill="white"/>
</g>
</svg>
