<svg width="40" height="40" viewBox="0 0 40 40" fill="none" xmlns="http://www.w3.org/2000/svg">
<g opacity="0.4">
<path d="M37.6471 20.0001C37.6471 18.1884 35.6236 16.7296 35.0941 15.0943C34.5412 13.4119 35.3059 11.0354 34.2824 9.62368C33.2471 8.20015 30.7412 8.20015 29.3294 7.16485C27.9177 6.14132 27.1412 3.76485 25.4588 3.21191C23.8236 2.6825 21.8118 4.14132 20 4.14132C18.2 4.14132 16.1765 2.6825 14.5412 3.21191C12.8588 3.76485 12.0824 6.14132 10.6824 7.16485C9.25885 8.20015 6.75297 8.20015 5.72944 9.62368C4.70591 11.0354 5.45885 13.4001 4.91767 15.0943C4.38826 16.7296 2.35297 18.1884 2.35297 20.0001C2.35297 21.8119 4.38826 23.2707 4.91767 24.906C5.45885 26.5884 4.70591 28.9649 5.72944 30.3766C6.75297 31.7884 9.25885 31.8001 10.6824 32.8354C12.0824 33.859 12.8588 36.2354 14.5412 36.7884C16.1765 37.3178 18.2 35.859 20 35.859C21.8118 35.859 23.8236 37.3178 25.4588 36.7884C27.1412 36.2354 27.9177 33.859 29.3294 32.8354C30.7412 31.8001 33.2471 31.7884 34.2824 30.3766C35.3059 28.9649 34.5412 26.5884 35.0941 24.906C35.6236 23.2707 37.6471 21.8119 37.6471 20.0001ZM28.0118 18.1884L24.4706 21.6472L25.3059 26.5296C25.4 27.0472 24.8471 27.4354 24.3765 27.2001L20 24.8943L15.6236 27.2001C15.153 27.4354 14.6118 27.0472 14.6941 26.5296L15.5294 21.6472L11.9883 18.1884C11.9037 18.1055 11.844 18.0007 11.8159 17.8858C11.7877 17.7708 11.7923 17.6502 11.8289 17.5377C11.8656 17.4252 11.933 17.3251 12.0236 17.2489C12.1141 17.1726 12.2241 17.1231 12.3412 17.106L17.2353 16.4001L19.4353 11.9531C19.6588 11.4825 20.3412 11.4825 20.5765 11.9531L22.7647 16.4001L27.6588 17.106C28.1765 17.1766 28.3883 17.8237 28.0118 18.1884Z" fill="white"/>
</g>
</svg>
