<svg width="40" height="40" viewBox="0 0 40 40" fill="none" xmlns="http://www.w3.org/2000/svg">
<g opacity="0.4">
<path fill-rule="evenodd" clip-rule="evenodd" d="M16.4769 4.2874L21.4095 6.20537L6.68305 11.9316L1.52375 9.92545L16.0239 4.2874C16.1752 4.22842 16.3254 4.22842 16.4769 4.2874ZM31.8366 20.7573C35.9784 20.7573 39.3359 24.1151 39.3359 28.2569C39.3359 32.3988 35.9784 35.7565 31.8366 35.7565C27.6948 35.7565 24.3369 32.3988 24.3369 28.2569C24.3369 24.1151 27.6947 20.7573 31.8366 20.7573ZM34.6762 24.8369L30.2336 29.2794L28.7177 27.3715C28.3448 26.9025 27.662 26.8245 27.193 27.1974C26.7238 27.5703 26.6458 28.253 27.0187 28.7221L29.2499 31.5296C29.6357 32.0822 30.43 32.1579 30.9107 31.6771L36.2134 26.3743C36.6381 25.9497 36.6381 25.2615 36.2134 24.8369C35.7889 24.4124 35.1007 24.4124 34.6762 24.8369ZM26.6766 8.25342C21.7679 10.1623 16.8591 12.0712 11.9501 13.9796L16.2503 15.6516L30.9769 9.92545L26.6766 8.25342ZM31.8366 10.928L16.8753 16.7454V34.0744L23.68 31.4285C23.2973 30.4452 23.087 29.3758 23.087 28.2569C23.087 23.4247 27.0043 19.5075 31.8366 19.5075V10.928ZM15.6253 34.0743V16.7454L11.0907 14.9822V18.6415C11.0907 18.8183 10.8841 18.9138 10.7495 18.7991L8.34289 16.7494L6.09219 17.4494C6.0612 17.4591 6.02834 17.4615 5.99628 17.4562C5.96422 17.4509 5.93387 17.4381 5.90769 17.4188C5.88152 17.3996 5.86026 17.3744 5.84564 17.3454C5.83103 17.3163 5.82347 17.2843 5.82359 17.2518V12.9342L0.664062 10.928V27.8293C0.664062 28.0923 0.817578 28.3166 1.06281 28.4119L15.6253 34.0743Z" fill="white"/>
</g>
</svg>
