<svg width="27" height="26" viewBox="0 0 27 26" fill="none" xmlns="http://www.w3.org/2000/svg">
<path d="M26.3528 7.02568C26.2779 6.91645 26.1786 6.8273 26.0631 6.76573C25.9477 6.70416 25.8195 6.67198 25.6894 6.67189H8.35891L7.04706 2.02664C6.53261 0.197465 5.31015 0 4.80876 0H1.3109C0.862566 0 0.5 0.37271 0.5 0.832624C0.5 1.29254 0.862974 1.66522 1.31087 1.66522H4.80833C4.91898 1.66522 5.25664 1.66522 5.48694 2.48233L9.99982 19.5126C10.0978 19.8718 10.4167 20.12 10.7805 20.12H21.8036C22.1458 20.12 22.4512 19.8999 22.5667 19.5691L26.4521 7.7862C26.5415 7.53087 26.5043 7.24663 26.3528 7.02568ZM21.233 18.4552H11.3959L8.8147 8.33756H24.5365L21.233 18.4552ZM19.6247 21.8075C18.497 21.8075 17.5832 22.7458 17.5832 23.9038C17.5832 25.0617 18.497 26 19.6247 26C20.7524 26 21.6662 25.0617 21.6662 23.9038C21.6662 22.7458 20.7524 21.8075 19.6247 21.8075ZM12.2754 21.8075C11.1477 21.8075 10.2339 22.7458 10.2339 23.9038C10.2339 25.0617 11.1477 26 12.2754 26C13.4031 26 14.3169 25.0617 14.3169 23.9038C14.3169 22.7458 13.4031 21.8075 12.2754 21.8075Z" fill="white"/>
</svg>
