<svg width="24" height="24" viewBox="0 0 24 24" fill="none" xmlns="http://www.w3.org/2000/svg">
<path fill-rule="evenodd" clip-rule="evenodd" d="M4.04943 5.93444C4.00161 6.51033 4 7.26745 4 8.44V15.56C4 16.7326 4.00161 17.4897 4.04943 18.0656C4.09527 18.6175 4.17301 18.8215 4.22517 18.9219L2.49992 19.8181L4.22517 18.9219C4.41492 19.2872 4.71276 19.5851 5.07805 19.7748C5.17847 19.827 5.3825 19.9047 5.93444 19.9506C6.51033 19.9984 7.26745 20 8.44 20H15.56C16.7326 20 17.4897 19.9984 18.0656 19.9506C18.6175 19.9047 18.8215 19.827 18.9219 19.7748C19.2872 19.5851 19.5851 19.2872 19.7748 18.9219C19.827 18.8215 19.9047 18.6175 19.9506 18.0656C19.9984 17.4897 20 16.7326 20 15.56V8.44C20 7.26745 19.9984 6.51033 19.9506 5.93444C19.9047 5.3825 19.827 5.17847 19.7748 5.07805C19.5851 4.71276 19.2872 4.41492 18.9219 4.22517L19.8181 2.49992L18.9219 4.22517C18.8215 4.17301 18.6175 4.09527 18.0656 4.04943C17.4897 4.00161 16.7326 4 15.56 4H8.44C7.26745 4 6.51033 4.00161 5.93444 4.04943C5.3825 4.09527 5.17847 4.17301 5.07805 4.22517C4.71276 4.41492 4.41492 4.71276 4.22517 5.07805C4.17301 5.17847 4.09527 5.3825 4.04943 5.93444ZM2.45035 4.1561C2 5.02306 2 6.16204 2 8.44V15.56C2 17.838 2 18.9769 2.45035 19.8439C2.82985 20.5745 3.42553 21.1702 4.1561 21.5497C5.02306 22 6.16204 22 8.44 22H15.56C17.838 22 18.9769 22 19.8439 21.5497C20.5745 21.1702 21.1702 20.5745 21.5497 19.8439C22 18.9769 22 17.838 22 15.56V8.44C22 6.16204 22 5.02306 21.5497 4.1561C21.1702 3.42553 20.5745 2.82985 19.8439 2.45035C18.9769 2 17.838 2 15.56 2H8.44C6.16204 2 5.02306 2 4.1561 2.45035C3.42553 2.82985 2.82985 3.42553 2.45035 4.1561Z" fill="#D9D9D9" fill-opacity="0.4"/>
</svg>
