<svg width="127" height="27" viewBox="0 0 127 27" fill="none" xmlns="http://www.w3.org/2000/svg">
<path d="M0 5.73535H2.94227V26.3168H0V5.73535Z" fill="white"/>
<path d="M49.5609 7.57258C50.2955 8.1958 50.8767 8.97967 51.2593 9.86345C51.642 10.7472 51.8159 11.7072 51.7676 12.669C51.814 13.6269 51.639 14.5826 51.2564 15.4622C50.8737 16.3417 50.2936 17.1214 49.5609 17.7408C47.8133 19.0551 45.6554 19.7064 43.472 19.5784H37.5956V26.3164H36.0918V5.73495H43.4475C45.6392 5.60111 47.8068 6.25268 49.5609 7.57258ZM48.5066 16.7852C49.0875 16.2814 49.5456 15.6515 49.8458 14.9438C50.1461 14.2361 50.2807 13.4692 50.2392 12.7016C50.2839 11.9277 50.1511 11.1537 49.8508 10.4389C49.5505 9.7241 49.0907 9.08731 48.5066 8.57716C47.0534 7.51182 45.2702 6.99401 43.472 7.11522H37.5956V18.2308H43.4802C45.2732 18.3506 47.0516 17.8391 48.5066 16.7852Z" fill="white"/>
<path d="M57.9383 24.1852C56.4999 22.6742 55.7725 20.4691 55.7725 17.5697V5.73535H57.2763V17.5207C57.2763 20.0525 57.8538 21.9582 59.009 23.2378C59.6663 23.8909 60.4552 24.3969 61.3232 24.7222C62.1912 25.0475 63.1185 25.1846 64.0435 25.1244C64.9637 25.1846 65.8861 25.0474 66.7488 24.722C67.6115 24.3966 68.3945 23.8905 69.0454 23.2378C70.206 21.9882 70.7781 20.0934 70.7781 17.5615V5.73535H72.2819V17.586C72.2819 20.4827 71.5572 22.6878 70.1079 24.2015C69.3038 24.98 68.3466 25.5831 67.2971 25.9725C66.2475 26.3619 65.1285 26.5293 64.0108 26.4638C62.8956 26.5277 61.7794 26.358 60.7337 25.9656C59.6879 25.5732 58.7358 24.9667 57.9383 24.1852Z" fill="white"/>
<path d="M78.3711 5.73535H79.8749V25.0019H91.7339V26.3577H78.3711V5.73535Z" fill="white"/>
<path d="M96.7845 25.6794C95.5783 25.2654 94.4845 24.5777 93.5889 23.6703L94.2672 22.5514C95.0929 23.3824 96.092 24.0211 97.1932 24.4217C98.4283 24.9005 99.7423 25.1443 101.067 25.1404C102.628 25.2486 104.182 24.8566 105.505 24.0215C105.977 23.6989 106.361 23.2644 106.623 22.757C106.886 22.2496 107.018 21.6851 107.009 21.114C107.027 20.7105 106.963 20.3076 106.823 19.9289C106.683 19.5502 106.468 19.2034 106.192 18.9088C105.647 18.3482 104.982 17.9182 104.246 17.651C103.206 17.284 102.144 16.9786 101.067 16.7363C99.8335 16.4499 98.6188 16.0871 97.4302 15.6501C96.5332 15.3057 95.7357 14.7445 95.109 14.0166C94.4365 13.1826 94.096 12.1297 94.1528 11.0601C94.1516 10.0853 94.4357 9.13139 94.9701 8.31587C95.5719 7.42558 96.4255 6.73464 97.422 6.33123C98.717 5.80071 100.11 5.5502 101.508 5.59618C102.644 5.59517 103.773 5.76307 104.859 6.09438C105.877 6.38933 106.841 6.84719 107.712 7.45014L107.066 8.66706C106.232 8.09793 105.313 7.66254 104.345 7.37664C103.396 7.08896 102.41 6.94041 101.419 6.93561C99.8882 6.83133 98.3661 7.23313 97.0869 8.07902C96.6257 8.41851 96.2523 8.86318 95.9978 9.37603C95.7434 9.88887 95.6152 10.455 95.6239 11.0274C95.6062 11.4308 95.6694 11.8337 95.8098 12.2124C95.9501 12.5911 96.1648 12.938 96.4412 13.2326C96.9934 13.7981 97.6669 14.2309 98.4109 14.4985C99.461 14.8695 100.531 15.1831 101.615 15.4377C102.844 15.7215 104.053 16.0843 105.235 16.524C106.125 16.8767 106.918 17.4367 107.548 18.1574C108.219 18.9701 108.56 20.0048 108.505 21.0568C108.51 22.0296 108.225 22.9821 107.687 23.7928C107.066 24.6773 106.199 25.3614 105.195 25.7611C103.897 26.2833 102.506 26.5335 101.108 26.4962C99.6287 26.4939 98.1626 26.217 96.7845 25.6794Z" fill="white"/>
<path d="M127 25.0019V26.3577H112.787V5.73535H126.559V7.08295H114.299V15.2012H125.275V16.5243H114.283V25.0019H127Z" fill="white"/>
<path d="M30.3052 5.73535H27.8942L19.4188 20.1996L10.9107 5.86603L8.41797 10.5949V26.3168H11.2458V11.4116L18.6832 23.8176H20.04L27.4855 11.3218L27.5101 26.3168H30.3379L30.3052 5.73535Z" fill="white"/>
<path d="M6.88935 7.10731H5.58984L6.71772 0.5H10.3629L6.88935 7.10731Z" fill="white"/>
</svg>
