<svg width="192" height="38" viewBox="0 0 192 38" fill="none" xmlns="http://www.w3.org/2000/svg">
<path d="M19.3077 2.375C11.31 2.375 4.82693 8.75472 4.82693 16.625C4.82693 20.5587 6.44661 24.1205 9.06618 26.699C11.6865 29.279 17.8596 33.0125 18.2217 36.9313C18.2759 37.5188 18.7082 38 19.3077 38C19.9072 38 20.3395 37.5188 20.3938 36.9313C20.7558 33.0125 26.9289 29.279 29.5492 26.699C32.1688 24.1205 33.7885 20.5587 33.7885 16.625C33.7885 8.75472 27.3054 2.375 19.3077 2.375Z" fill="#FF4433"/>
<path d="M19.3077 21.6127C22.1069 21.6127 24.376 19.3797 24.376 16.6252C24.376 13.8707 22.1069 11.6377 19.3077 11.6377C16.5086 11.6377 14.2395 13.8707 14.2395 16.6252C14.2395 19.3797 16.5086 21.6127 19.3077 21.6127Z" fill="white"/>
<path d="M58.2932 27.5849H61.3744V10.1445H56.8853C52.3721 10.1445 50.0069 12.4245 50.0069 15.7891C50.0069 18.4729 51.3022 20.0562 53.6271 21.687L49.5966 27.5849H52.9353L57.4243 20.9824L55.8717 19.9533C53.9811 18.7024 53.064 17.7208 53.064 15.6149C53.064 13.7545 54.3914 12.5037 56.9175 12.5037H58.2932V27.5849ZM117.785 27.8304C119.193 27.8304 120.182 27.5849 120.923 27.0545V24.6241C120.158 25.1466 119.241 25.4712 117.97 25.4712C115.798 25.4712 114.905 23.8166 114.905 21.212C114.905 18.4729 116.007 17.0716 117.994 17.0716C119.169 17.0716 120.311 17.4674 120.923 17.8474V15.3141C120.287 14.9579 119.169 14.7124 117.664 14.7124C113.787 14.7124 111.767 17.4437 111.767 21.2833C111.767 25.5029 113.73 27.8304 117.785 27.8304ZM98.8152 26.7299V24.2916C97.874 24.9249 96.2891 25.4712 94.8089 25.4712C92.5885 25.4712 91.7518 24.4499 91.6231 22.3362H98.9439V20.7608C98.9439 16.367 96.981 14.7124 93.94 14.7124C90.2474 14.7124 88.4856 17.4912 88.4856 21.307C88.4856 25.7008 90.6818 27.8304 94.5595 27.8304C96.4902 27.8304 97.9222 27.3316 98.8152 26.7299ZM108.509 27.5849H111.944L107.077 20.8795L111.365 14.9579H108.3L104.02 20.8795V14.9579H100.979V27.5849H104.02V21.4812L108.509 27.5849ZM87.7455 25.2258H86.3939V14.9579H77.5445V16.0424C77.5445 19.122 77.3434 23.112 76.2735 25.2258H75.3242V30.4666H78.1318V27.5849H84.9378V30.4666H87.7455V25.2258ZM71.0202 14.9579V19.9533H66.9655V14.9579H63.9246V27.5849H66.9655V22.3124H71.0202V27.5849H74.0531V14.9579H71.0202ZM93.8917 17.0716C95.3961 17.0716 95.8547 18.2987 95.8547 19.882V20.1274H91.6231C91.7035 18.1245 92.4356 17.0716 93.8917 17.0716ZM83.361 25.2258H79.0731C79.9178 23.3179 80.1511 19.882 80.1511 17.697V17.317H83.361V25.2258ZM136.763 27.5849H140.359L134.06 18.4254L139.772 10.1445H136.634L131.148 18.172V10.1445H128.066V27.5849H131.148V19.3991L136.763 27.5849ZM150.713 18.9716C150.713 15.9158 149.128 14.7599 145.918 14.7599C143.907 14.7599 142.322 15.3854 141.405 15.9158V18.4016C142.217 17.792 144.003 17.1429 145.564 17.1429C147.012 17.1429 147.68 17.6416 147.68 19.0033V19.6999H147.189C142.547 19.6999 140.488 21.212 140.488 23.7691C140.488 26.3262 142.064 27.7591 144.414 27.7591C146.2 27.7591 146.964 27.1812 147.551 26.5795H147.68C147.704 26.9041 147.809 27.3316 147.905 27.5849H150.866C150.761 26.5558 150.713 25.5266 150.713 24.4974V18.9716ZM147.68 24.5687C147.294 25.1229 146.578 25.5741 145.508 25.5741C144.237 25.5741 143.593 24.8695 143.593 23.7929C143.593 22.3599 144.639 21.8374 147.245 21.8374H147.68V24.5687ZM155.966 14.9579H153.158V31.2187H156.191V26.1045C156.964 27.2287 158.082 27.8304 159.385 27.8304C162.338 27.8304 164.381 25.5029 164.381 21.2595C164.381 17.0399 162.394 14.7124 159.538 14.7124C158.106 14.7124 156.931 15.3616 156.119 16.5887L155.966 14.9579ZM158.621 25.4712C157.012 25.4712 156.191 24.1966 156.191 21.2833C156.191 18.3462 157.06 17.0716 158.774 17.0716C160.431 17.0716 161.243 18.3462 161.243 21.2595C161.243 24.1966 160.375 25.4712 158.621 25.4712ZM175.065 17.317V14.9579H164.888V17.317H168.46V27.5849H171.493V17.317H175.065ZM176.851 14.9579V27.5849H181.468C184.453 27.5849 186.569 26.0808 186.569 23.112C186.569 20.3016 184.678 18.8212 181.517 18.8212H179.883V14.9579H176.851ZM187.687 14.9579V27.5849H190.728V14.9579H187.687ZM181.291 25.2258H179.883V21.1804H181.364C182.667 21.1804 183.431 21.7583 183.431 23.2149C183.431 24.6716 182.587 25.2258 181.291 25.2258Z" fill="white"/>
</svg>
