<svg width="173" height="50" viewBox="0 0 173 50" fill="none" xmlns="http://www.w3.org/2000/svg">
<path d="M14.8034 25.199L10.3464 22.6123V36.9784L11.8188 37.8141L14.8034 29.6958V25.199Z" fill="white"/>
<path d="M41.0688 9.16146L39.7555 5.34111H46.4809V2.99319L44.0534 1.52076L43.3371 0.0881271H33.8658L34.8607 1.71974L32.7515 4.42582L30.6026 1.71974L31.5975 0.0881271H22.1262L21.4497 1.52076L18.9824 2.99319V5.34111H25.7476L24.4343 9.16146H0V13.3002L19.3007 24.4429L12.2172 43.7038L24.4343 36.7396L32.7515 14.8124L41.0688 36.7396L53.2461 43.7038L46.1626 24.4429L65.5031 13.3002V9.16146H41.0688Z" fill="white"/>
<path d="M50.6996 29.6958L53.6842 37.8141L55.1168 36.9784V22.6123L50.6996 25.199V29.6958Z" fill="white"/>
<path d="M32.7513 43.863L25.031 39.4457L19.6188 42.3508L32.7513 49.9119L45.8439 42.3508L40.4318 39.4457L32.7513 43.863Z" fill="white"/>
<path d="M73.2385 25.6979V16.7837L77.0588 12.9236H84.6995V25.6979H82.1526V21.8775H75.7854V25.6979H73.2385ZM82.1526 19.3306V15.4705H78.3323L75.7854 18.0572V19.3306H82.1526Z" fill="white"/>
<path d="M86.3698 25.6979V12.9236H96.5574L97.8309 14.2368V20.6041L96.5574 21.8775H88.9167V25.6979H86.3698ZM95.3238 19.3306V15.4705H88.9565V19.3306H95.3238Z" fill="white"/>
<path d="M99.4247 25.6979V12.9236H101.972L106.429 19.0918L110.965 12.9236H113.433V25.6979H110.886V17.1021L107.543 21.9969H105.394L101.972 17.1021V25.6979H99.4247Z" fill="white"/>
<path d="M115.143 25.6979V12.9236H117.69V21.4398L124.057 12.9236H126.604V25.6979H124.057V17.1817L117.69 25.6979H115.143Z" fill="white"/>
<path d="M128.277 25.6979V23.151L129.55 21.8775L128.277 20.6041V14.2368L129.55 12.9236H139.738V25.6979H137.191V21.8775H133.37L130.823 24.4244V25.6979H128.277ZM137.191 19.3306V15.4705H130.823V19.3306H137.191Z" fill="white"/>
<path d="M150.879 15.5103V16.7837H148.332V14.2368L149.606 12.9236H158.559L159.833 14.2368V18.0572L152.71 23.151H159.833V25.6979H148.372V23.151L157.286 16.7837V15.4705H150.879V15.5103Z" fill="white"/>
<path d="M162.54 25.6978L161.266 24.4244V21.8775H163.813V23.1509H170.181V20.0071H165.087H161.266V12.9633H172.17V15.5102H163.813V17.4602H171.454L172.727 18.7337V24.504L171.454 25.7774H162.54V25.6978Z" fill="white"/>
<path d="M75.0787 38.3549C74.521 38.0203 74.0749 37.6299 73.7403 37.0723C73.4058 36.5147 73.2385 35.9013 73.2385 35.2321C73.2385 34.563 73.4058 33.9496 73.7403 33.3919C74.0749 32.8343 74.521 32.3882 75.0787 32.1094C75.6363 31.7748 76.3055 31.6633 77.0304 31.6633C77.7553 31.6633 78.3687 31.8306 78.9263 32.1094C79.484 32.444 79.9301 32.8343 80.2647 33.3919C80.5992 33.9496 80.7665 34.563 80.7665 35.2321C80.7665 35.9013 80.5992 36.5147 80.2647 37.0723C79.9301 37.6299 79.484 38.076 78.9263 38.3549C78.3687 38.6894 77.6995 38.801 77.0304 38.801C76.3055 38.8567 75.6363 38.6894 75.0787 38.3549ZM78.4245 37.5742C78.8148 37.3511 79.1494 37.0166 79.4282 36.5704C79.6513 36.1801 79.7628 35.6782 79.7628 35.1764C79.7628 34.6745 79.6513 34.1726 79.4282 33.7823C79.2051 33.3919 78.8706 33.0574 78.4245 32.7785C78.0341 32.5555 77.5323 32.444 77.0304 32.444C76.5285 32.444 76.0267 32.5555 75.6363 32.7785C75.1902 33.0016 74.9114 33.3362 74.6326 33.7823C74.4095 34.1726 74.298 34.6745 74.298 35.1764C74.298 35.6782 74.4095 36.1801 74.6326 36.5704C74.8556 36.9608 75.1902 37.2954 75.6363 37.5742C76.0824 37.7972 76.5285 37.9088 77.0304 37.9088C77.5323 37.9645 77.9784 37.853 78.4245 37.5742Z" fill="white"/>
<path d="M88.7965 37.9088V40.3623H87.8486V38.7452H81.9934V40.3066H81.0455V37.853H81.38C81.8261 37.853 82.1607 37.4627 82.328 36.7935C82.4953 36.1243 82.6068 35.1764 82.6626 33.9496L82.7184 31.6633H87.6813V37.853H88.7965V37.9088ZM83.3318 36.5147C83.2202 37.1838 82.9972 37.6299 82.7184 37.853H86.7333V32.5555H83.6106L83.5548 34.0611C83.5548 35.0648 83.499 35.9013 83.3318 36.5147Z" fill="white"/>
<path d="M95.0994 37.9087V38.801H89.9692V31.719H94.9879V32.6112H90.9729V34.786H94.5418V35.6224H90.9729V37.9087H95.0994Z" fill="white"/>
<path d="M102.794 35.6782H101.456V38.801H100.452V35.6782H99.1138L97.1064 38.801H95.9353L98.2774 35.1206L96.1026 31.719H97.1621L99.0581 34.786H100.452V31.719H101.456V34.786H102.794L104.69 31.719H105.75L103.575 35.1206L105.917 38.801H104.746L102.794 35.6782Z" fill="white"/>
<path d="M114.28 37.9088V40.3623H113.332V38.7452H107.476V40.3066H106.528V37.853H106.863C107.309 37.853 107.644 37.4627 107.811 36.7935C107.978 36.1243 108.09 35.1764 108.146 33.9496L108.201 31.6633H113.164V37.853H114.28V37.9088ZM108.871 36.5147C108.759 37.1838 108.536 37.6299 108.257 37.853H112.272V32.5555H109.149L109.094 34.0611C109.094 35.0648 108.982 35.9013 108.871 36.5147Z" fill="white"/>
<path d="M120.58 37.0165H116.788L116.008 38.801H114.948L118.183 31.719H119.186L122.421 38.801H121.361L120.58 37.0165ZM120.19 36.1801L118.684 32.7228L117.179 36.1801H120.19Z" fill="white"/>
<path d="M126.38 31.6633H127.384V37.1281L131.566 31.6633H132.514V38.7452H131.51V33.2804L127.328 38.7452H126.38V31.6633Z" fill="white"/>
<path d="M138.65 38.3549C138.092 38.0203 137.646 37.6299 137.312 37.0723C136.977 36.5147 136.81 35.9013 136.81 35.2321C136.81 34.563 136.977 33.9496 137.312 33.3919C137.646 32.8343 138.092 32.3882 138.65 32.1094C139.208 31.7748 139.877 31.6633 140.602 31.6633C141.327 31.6633 141.94 31.8306 142.498 32.1094C143.055 32.444 143.501 32.8343 143.836 33.3919C144.171 33.9496 144.338 34.563 144.338 35.2321C144.338 35.9013 144.171 36.5147 143.836 37.0723C143.501 37.6299 143.055 38.076 142.498 38.3549C141.94 38.6894 141.271 38.801 140.602 38.801C139.877 38.8567 139.263 38.6894 138.65 38.3549ZM141.996 37.5742C142.386 37.3511 142.721 37.0166 143 36.5704C143.223 36.1801 143.334 35.6782 143.334 35.1764C143.334 34.6745 143.223 34.1726 143 33.7823C142.777 33.3919 142.442 33.0574 141.996 32.7785C141.606 32.5555 141.104 32.444 140.602 32.444C140.1 32.444 139.598 32.5555 139.208 32.7785C138.762 33.0016 138.427 33.3362 138.204 33.7823C137.981 34.1726 137.869 34.6745 137.869 35.1764C137.869 35.6782 137.981 36.1801 138.204 36.5704C138.427 36.9608 138.762 37.2954 139.208 37.5742C139.654 37.7972 140.1 37.9088 140.602 37.9088C141.104 37.9645 141.606 37.853 141.996 37.5742Z" fill="white"/>
<path d="M145.787 31.6633H151.14V32.4997H146.791V34.5072H149.021C149.858 34.5072 150.527 34.6745 150.917 35.0091C151.363 35.3436 151.586 35.8455 151.586 36.5147C151.586 37.1838 151.363 37.7415 150.861 38.1318C150.359 38.5222 149.69 38.6894 148.798 38.6894H145.787V31.6633ZM148.742 37.9645C149.3 37.9645 149.746 37.853 150.081 37.6299C150.359 37.4069 150.527 37.0723 150.527 36.6262C150.527 35.7898 149.913 35.3437 148.742 35.3437H146.735V37.9645H148.742Z" fill="white"/>
<path d="M158.891 31.6633L155.768 37.5184C155.545 37.9645 155.21 38.3549 154.876 38.5779C154.541 38.801 154.151 38.9125 153.76 38.9125C153.426 38.9125 153.147 38.8567 152.812 38.6894L153.091 37.853C153.314 37.9645 153.537 37.9645 153.76 37.9645C154.207 37.9645 154.597 37.7415 154.876 37.2396L155.043 36.9608L152.199 31.6075H153.259L155.545 36.1243L157.887 31.6075H158.891V31.6633Z" fill="white"/>
<path d="M165.473 35.6782C165.696 35.957 165.863 36.3474 165.863 36.7935C165.863 37.4069 165.64 37.9088 165.194 38.2433C164.748 38.5779 164.079 38.7452 163.243 38.7452H160.008V31.6633H163.075C163.856 31.6633 164.469 31.8306 164.916 32.1094C165.362 32.444 165.585 32.8901 165.585 33.4477C165.585 33.838 165.473 34.1726 165.306 34.4514C165.139 34.7303 164.86 34.8975 164.469 35.0648C164.86 35.2321 165.194 35.3994 165.473 35.6782ZM160.956 34.786H162.908C163.41 34.786 163.8 34.6745 164.023 34.5072C164.302 34.2841 164.414 34.0053 164.414 33.6708C164.414 33.2804 164.302 33.0016 164.023 32.7785C163.744 32.5555 163.41 32.4997 162.908 32.4997H160.956V34.786ZM164.804 36.7377C164.804 36.3474 164.692 36.0128 164.414 35.8455C164.135 35.6782 163.744 35.5667 163.187 35.5667H160.956V37.9645H163.187C164.246 37.9645 164.804 37.5742 164.804 36.7377Z" fill="white"/>
<path d="M172.331 34.7302C172.777 35.1206 173 35.6782 173 36.4031C173 37.1838 172.777 37.7972 172.275 38.1876C171.774 38.5779 171.104 38.801 170.212 38.801H167.313V31.719H168.316V34.1726H170.435C171.216 34.1726 171.885 34.3399 172.331 34.7302ZM171.495 37.5742C171.829 37.2953 171.941 36.905 171.941 36.4031C171.941 35.4552 171.327 34.9533 170.101 34.9533H168.205V37.9645H170.101C170.77 37.9645 171.216 37.853 171.495 37.5742Z" fill="white"/>
</svg>
