<svg width="141" height="117" viewBox="0 0 141 117" fill="none" xmlns="http://www.w3.org/2000/svg">
<path d="M45.8657 35.4239L39.5781 31.7749V52.0411L41.6553 53.2201L45.8657 41.7677V35.4239Z" fill="white"/>
<path d="M82.918 12.7997L81.0654 7.41036H90.5529V4.09816L87.1285 2.02101L86.1179 0H72.7568L74.1603 2.30171L71.1849 6.11917L68.1534 2.30171L69.5569 0H56.1958L55.2414 2.02101L51.7608 4.09816V7.41036H61.3044L59.4518 12.7997H24.9824V18.6382L52.2099 34.3571L42.2171 61.5285L59.4518 51.7041L71.1849 20.7715L82.918 51.7041L100.097 61.5285L90.1038 34.3571L117.387 18.6382V12.7997H82.918Z" fill="white"/>
<path d="M96.5041 41.7677L100.715 53.2201L102.736 52.0411V31.7749L96.5041 35.4239V41.7677Z" fill="white"/>
<path d="M71.1841 61.7534L60.2931 55.522L52.6582 59.6201L71.1841 70.2866L89.6539 59.6201L82.019 55.522L71.1841 61.7534Z" fill="white"/>
<path d="M0 98.1911V85.6159L5.38936 80.1704H16.1681V98.1911H12.5752V92.8017H3.5929V98.1911H0ZM12.5752 89.2088V83.7633H7.1858L3.5929 87.4124V89.2088H12.5752Z" fill="white"/>
<path d="M18.5254 98.1911V80.1704H32.897L34.6935 82.023V91.0053L32.897 92.8017H22.1183V98.1911H18.5254ZM31.1567 89.2088V83.7633H22.1744V89.2088H31.1567Z" fill="white"/>
<path d="M36.9395 98.1911V80.1704H40.5324L46.8199 88.872L53.2198 80.1704H56.7004V98.1911H53.1075V86.065L48.3919 92.9701H45.3603L40.5324 86.065V98.1911H36.9395Z" fill="white"/>
<path d="M59.1152 98.1911V80.1704H62.7082V92.1842L71.6904 80.1704H75.2833V98.1911H71.6904V86.1773L62.7082 98.1911H59.1152Z" fill="white"/>
<path d="M77.6406 98.1911V94.5982L79.4371 92.8017L77.6406 91.0053V82.023L79.4371 80.1704H93.8087V98.1911H90.2158V92.8017H84.8264L81.2335 96.3946V98.1911H77.6406ZM90.2158 89.2088V83.7633H81.2335V89.2088H90.2158Z" fill="white"/>
<path d="M109.526 83.8195V85.6159H105.934V82.023L107.73 80.1704H120.361L122.158 82.023V87.4124L112.109 94.5982H122.158V98.1911H105.99V94.5982L118.565 85.6159V83.7633H109.526V83.8195Z" fill="white"/>
<path d="M125.976 98.1916L124.18 96.3951V92.8022H127.773V94.5987H136.755V90.1637H129.569H124.18V80.2271H139.562V83.82H127.773V86.5708H138.551L140.348 88.3672V96.5074L138.551 98.3038H125.976V98.1916Z" fill="white"/>
<path d="M22.0069 114.979C21.4455 114.642 20.9964 114.249 20.6595 113.688C20.3227 113.126 20.1543 112.509 20.1543 111.835C20.1543 111.161 20.3227 110.544 20.6595 109.983C20.9964 109.421 21.4455 108.972 22.0069 108.691C22.5683 108.354 23.242 108.242 23.9718 108.242C24.7016 108.242 25.3191 108.411 25.8805 108.691C26.4419 109.028 26.891 109.421 27.2278 109.983C27.5647 110.544 27.7331 111.161 27.7331 111.835C27.7331 112.509 27.5647 113.126 27.2278 113.688C26.891 114.249 26.4419 114.698 25.8805 114.979C25.3191 115.316 24.6454 115.428 23.9718 115.428C23.242 115.484 22.5683 115.316 22.0069 114.979ZM25.3752 114.193C25.7682 113.968 26.105 113.632 26.3857 113.182C26.6103 112.789 26.7226 112.284 26.7226 111.779C26.7226 111.274 26.6103 110.768 26.3857 110.375C26.1612 109.983 25.8244 109.646 25.3752 109.365C24.9823 109.14 24.477 109.028 23.9718 109.028C23.4665 109.028 22.9613 109.14 22.5683 109.365C22.1192 109.59 21.8385 109.926 21.5578 110.375C21.3332 110.768 21.2209 111.274 21.2209 111.779C21.2209 112.284 21.3332 112.789 21.5578 113.182C21.7823 113.575 22.1192 113.912 22.5683 114.193C23.0174 114.417 23.4665 114.53 23.9718 114.53C24.477 114.586 24.9261 114.474 25.3752 114.193Z" fill="white"/>
<path d="M35.817 114.53V117H34.8627V115.372H28.968V116.944H28.0137V114.474H28.3505C28.7996 114.474 29.1365 114.081 29.3049 113.407C29.4733 112.733 29.5856 111.779 29.6417 110.544L29.6978 108.242H34.6942V114.474H35.817V114.53ZM30.3154 113.126C30.2031 113.8 29.9785 114.249 29.6978 114.474H33.7399V109.14H30.5961L30.5399 110.656C30.5399 111.667 30.4838 112.509 30.3154 113.126Z" fill="white"/>
<path d="M42.1609 114.53V115.428H36.9961V108.298H42.0486V109.197H38.0066V111.386H41.5995V112.228H38.0066V114.53H42.1609Z" fill="white"/>
<path d="M49.909 112.284H48.5617V115.428H47.5512V112.284H46.2038L44.1828 115.428H43.0039L45.3617 111.723L43.1723 108.298H44.239L46.1477 111.386H47.5512V108.298H48.5617V111.386H49.909L51.8177 108.298H52.8844L50.695 111.723L53.0528 115.428H51.8739L49.909 112.284Z" fill="white"/>
<path d="M61.4713 114.53V117H60.5169V115.372H54.6223V116.944H53.668V114.474H54.0048C54.4539 114.474 54.7907 114.081 54.9592 113.407C55.1276 112.733 55.2399 111.779 55.296 110.544L55.3521 108.242H60.3485V114.474H61.4713V114.53ZM56.0258 113.126C55.9135 113.8 55.689 114.249 55.4083 114.474H59.4503V109.14H56.3065L56.2504 110.656C56.2504 111.667 56.1381 112.509 56.0258 113.126Z" fill="white"/>
<path d="M67.8165 113.632H63.9991L63.2131 115.428H62.1465L65.4025 108.298H66.413L69.6691 115.428H68.6025L67.8165 113.632ZM67.4236 112.789L65.9078 109.309L64.392 112.789H67.4236Z" fill="white"/>
<path d="M73.6562 108.242H74.6667V113.744L78.8772 108.242H79.8316V115.372H78.821V109.87L74.6106 115.372H73.6562V108.242Z" fill="white"/>
<path d="M86.0049 114.979C85.4436 114.642 84.9944 114.249 84.6576 113.688C84.3208 113.126 84.1523 112.509 84.1523 111.835C84.1523 111.161 84.3208 110.544 84.6576 109.983C84.9944 109.421 85.4436 108.972 86.0049 108.691C86.5663 108.354 87.24 108.242 87.9698 108.242C88.6996 108.242 89.3172 108.411 89.8785 108.691C90.4399 109.028 90.889 109.421 91.2259 109.983C91.5627 110.544 91.7311 111.161 91.7311 111.835C91.7311 112.509 91.5627 113.126 91.2259 113.688C90.889 114.249 90.4399 114.698 89.8785 114.979C89.3172 115.316 88.6435 115.428 87.9698 115.428C87.24 115.484 86.6225 115.316 86.0049 114.979ZM89.3733 114.193C89.7663 113.968 90.1031 113.632 90.3838 113.182C90.6083 112.789 90.7206 112.284 90.7206 111.779C90.7206 111.274 90.6083 110.768 90.3838 110.375C90.1592 109.983 89.8224 109.646 89.3733 109.365C88.9803 109.14 88.4751 109.028 87.9698 109.028C87.4646 109.028 86.9593 109.14 86.5663 109.365C86.1172 109.59 85.7804 109.926 85.5558 110.375C85.3313 110.768 85.219 111.274 85.219 111.779C85.219 112.284 85.3313 112.789 85.5558 113.182C85.7804 113.575 86.1172 113.912 86.5663 114.193C87.0154 114.417 87.4646 114.53 87.9698 114.53C88.4751 114.586 88.9803 114.474 89.3733 114.193Z" fill="white"/>
<path d="M93.1914 108.242H98.5808V109.084H94.2019V111.105H96.4475C97.2896 111.105 97.9632 111.273 98.3562 111.61C98.8053 111.947 99.0299 112.452 99.0299 113.126C99.0299 113.799 98.8053 114.361 98.3001 114.754C97.7948 115.147 97.1211 115.315 96.2229 115.315H93.1914V108.242ZM96.1668 114.585C96.7282 114.585 97.1773 114.473 97.5141 114.249C97.7948 114.024 97.9632 113.687 97.9632 113.238C97.9632 112.396 97.3457 111.947 96.1668 111.947H94.1458V114.585H96.1668Z" fill="white"/>
<path d="M106.385 108.242L103.241 114.137C103.017 114.586 102.68 114.979 102.343 115.203C102.006 115.428 101.613 115.54 101.22 115.54C100.883 115.54 100.603 115.484 100.266 115.316L100.547 114.474C100.771 114.586 100.996 114.586 101.22 114.586C101.669 114.586 102.062 114.361 102.343 113.856L102.512 113.575L99.6484 108.186H100.715L103.017 112.733L105.375 108.186H106.385V108.242Z" fill="white"/>
<path d="M113.009 112.284C113.234 112.565 113.402 112.958 113.402 113.407C113.402 114.025 113.178 114.53 112.729 114.867C112.28 115.203 111.606 115.372 110.764 115.372H107.508V108.242H110.595C111.381 108.242 111.999 108.411 112.448 108.691C112.897 109.028 113.122 109.477 113.122 110.039C113.122 110.432 113.009 110.768 112.841 111.049C112.673 111.33 112.392 111.498 111.999 111.667C112.392 111.835 112.729 112.004 113.009 112.284ZM108.462 111.386H110.427C110.932 111.386 111.325 111.274 111.55 111.105C111.831 110.881 111.943 110.6 111.943 110.263C111.943 109.87 111.831 109.59 111.55 109.365C111.269 109.14 110.932 109.084 110.427 109.084H108.462V111.386ZM112.336 113.351C112.336 112.958 112.223 112.621 111.943 112.453C111.662 112.284 111.269 112.172 110.708 112.172H108.462V114.586H110.708C111.774 114.586 112.336 114.193 112.336 113.351Z" fill="white"/>
<path d="M119.912 111.33C120.361 111.723 120.586 112.284 120.586 113.014C120.586 113.8 120.361 114.418 119.856 114.81C119.351 115.203 118.677 115.428 117.779 115.428H114.859V108.298H115.87V110.768H118.003C118.789 110.768 119.463 110.937 119.912 111.33ZM119.07 114.193C119.407 113.912 119.519 113.519 119.519 113.014C119.519 112.06 118.901 111.554 117.666 111.554H115.758V114.586H117.666C118.34 114.586 118.789 114.474 119.07 114.193Z" fill="white"/>
</svg>
