<svg width="33" height="32" viewBox="0 0 33 32" fill="none" xmlns="http://www.w3.org/2000/svg">
<path fill-rule="evenodd" clip-rule="evenodd" d="M5.16668 6.66667C4.81305 6.66667 4.47392 6.80714 4.22387 7.05719C3.97382 7.30724 3.83334 7.64638 3.83334 8C3.83334 8.35362 3.97382 8.69276 4.22387 8.94281C4.47392 9.19286 4.81305 9.33333 5.16668 9.33333H27.8333C28.187 9.33333 28.5261 9.19286 28.7762 8.94281C29.0262 8.69276 29.1667 8.35362 29.1667 8C29.1667 7.64638 29.0262 7.30724 28.7762 7.05719C28.5261 6.80714 28.187 6.66667 27.8333 6.66667H5.16668ZM3.83334 16C3.83334 15.6464 3.97382 15.3072 4.22387 15.0572C4.47392 14.8071 4.81305 14.6667 5.16668 14.6667H27.8333C28.187 14.6667 28.5261 14.8071 28.7762 15.0572C29.0262 15.3072 29.1667 15.6464 29.1667 16C29.1667 16.3536 29.0262 16.6928 28.7762 16.9428C28.5261 17.1929 28.187 17.3333 27.8333 17.3333H5.16668C4.81305 17.3333 4.47392 17.1929 4.22387 16.9428C3.97382 16.6928 3.83334 16.3536 3.83334 16ZM3.83334 24.0013C3.83334 23.6477 3.97382 23.3086 4.22387 23.0585C4.47392 22.8085 4.81305 22.668 5.16668 22.668H27.8333C28.187 22.668 28.5261 22.8085 28.7762 23.0585C29.0262 23.3086 29.1667 23.6477 29.1667 24.0013C29.1667 24.355 29.0262 24.6941 28.7762 24.9441C28.5261 25.1942 28.187 25.3347 27.8333 25.3347H5.16668C4.81305 25.3347 4.47392 25.1942 4.22387 24.9441C3.97382 24.6941 3.83334 24.355 3.83334 24.0013Z" fill="white"/>
</svg>
