<svg width="34" height="34" viewBox="0 0 34 34" fill="none" xmlns="http://www.w3.org/2000/svg">
<g clip-path="url(#clip0_810_206)">
<path d="M17 34C26.3888 34 34 26.3888 34 17C34 7.61116 26.3888 0 17 0C7.61116 0 0 7.61116 0 17C0 26.3888 7.61116 34 17 34Z" fill="#F96600"/>
<path d="M15.9551 21.3428C14.3073 21.1709 12.8217 20.7633 11.5506 19.7703C11.3922 19.6467 11.2299 19.5269 11.085 19.384C10.5287 18.8488 10.4726 18.2365 10.9131 17.6067C11.2898 17.0658 11.9215 16.9209 12.5802 17.2319C12.7067 17.2959 12.8282 17.3696 12.9434 17.4521C14.1214 18.2527 15.5099 18.6869 16.9341 18.6999C18.3583 18.713 19.7545 18.3044 20.9469 17.5255C21.1748 17.3409 21.4376 17.2042 21.7197 17.1237C21.9819 17.0462 22.2626 17.0591 22.5166 17.1604C22.7706 17.2616 22.9832 17.4454 23.1202 17.682C23.468 18.25 23.4641 18.8025 23.0352 19.2429C22.3779 19.9078 21.5835 20.4213 20.7074 20.7478C19.8545 21.0542 18.9668 21.2535 18.0647 21.3409C18.1999 21.4896 18.2579 21.5611 18.3506 21.6461C19.5734 22.8767 20.8021 24.1015 22.021 25.334C22.2152 25.5105 22.347 25.7453 22.3964 26.003C22.4459 26.2608 22.4104 26.5276 22.2954 26.7635C22.1782 27.0221 21.9874 27.2404 21.7469 27.3912C21.5065 27.542 21.2269 27.6187 20.9431 27.6116C20.6111 27.5789 20.3039 27.4215 20.0834 27.1711C19.16 26.2419 18.2192 25.3301 17.3151 24.3835C17.0524 24.1092 16.9288 24.1613 16.6931 24.399C15.7639 25.3649 14.8192 26.2979 13.8707 27.2329C13.6946 27.4281 13.4586 27.5593 13.1998 27.6058C12.9411 27.6523 12.6742 27.6115 12.4412 27.4899C12.1886 27.3719 11.9755 27.1836 11.8275 26.9475C11.6795 26.7114 11.6028 26.4375 11.6066 26.1588C11.6345 25.8144 11.7952 25.4944 12.0548 25.2663C13.268 24.057 14.4773 22.8471 15.6827 21.6365C15.7639 21.5534 15.8411 21.4665 15.9551 21.3428Z" fill="white"/>
<path d="M16.958 17.1313C15.8927 17.1251 14.8532 16.8026 13.9714 16.2048C13.0896 15.607 12.4052 14.7608 12.005 13.7735C11.6048 12.7862 11.5069 11.7023 11.7236 10.6592C11.9403 9.61617 12.4619 8.66097 13.2222 7.91476C13.9825 7.16855 14.9473 6.66496 15.9943 6.46786C17.0412 6.27075 18.1231 6.38901 19.1027 6.80764C20.0823 7.22626 20.9156 7.92639 21.4967 8.81923C22.0779 9.71208 22.3808 10.7574 22.3671 11.8226C22.3477 13.242 21.7684 14.5962 20.7554 15.5905C19.7423 16.5848 18.3774 17.1385 16.958 17.1313ZM19.6297 11.7473C19.6281 11.2266 19.4721 10.718 19.1814 10.286C18.8907 9.85404 18.4783 9.51802 17.9965 9.32053C17.5147 9.12303 16.9851 9.07294 16.4748 9.17659C15.9645 9.28024 15.4964 9.53298 15.1299 9.9028C14.7633 10.2726 14.5147 10.7429 14.4155 11.2541C14.3164 11.7653 14.3712 12.2944 14.5729 12.7744C14.7746 13.2545 15.1143 13.6639 15.5488 13.9508C15.9834 14.2377 16.4933 14.3892 17.014 14.3862C17.3592 14.3854 17.7009 14.3165 18.0194 14.1833C18.338 14.0501 18.627 13.8554 18.8701 13.6102C19.1131 13.365 19.3053 13.0742 19.4357 12.7545C19.566 12.4348 19.632 12.0925 19.6297 11.7473Z" fill="white"/>
</g>
<defs>
<clipPath id="clip0_810_206">
<rect width="34" height="34" fill="white"/>
</clipPath>
</defs>
</svg>
