<svg width="31" height="30" viewBox="0 0 31 30" fill="none" xmlns="http://www.w3.org/2000/svg">
<g clip-path="url(#clip0_810_140)">
<path d="M15.3515 0H15.344C7.0734 0 0.347778 6.7275 0.347778 15C0.347778 18.2812 1.40528 21.3225 3.2034 23.7919L1.33403 29.3644L7.09965 27.5213C9.47153 29.0925 12.3009 30 15.3515 30C23.6222 30 30.3478 23.2706 30.3478 15C30.3478 6.72938 23.6222 0 15.3515 0Z" fill="#4CAF50"/>
<path d="M24.0796 21.1821C23.7178 22.204 22.2815 23.0515 21.1359 23.299C20.3521 23.4658 19.3284 23.599 15.8821 22.1702C11.474 20.344 8.63525 15.8646 8.414 15.574C8.20213 15.2833 6.63275 13.2021 6.63275 11.0496C6.63275 8.89709 7.72588 7.84897 8.1665 7.39897C8.52838 7.02959 9.1265 6.86084 9.70025 6.86084C9.88588 6.86084 10.0528 6.87021 10.2028 6.87771C10.6434 6.89646 10.8646 6.92272 11.1553 7.61834C11.5171 8.49022 12.3984 10.6427 12.5034 10.864C12.6103 11.0852 12.7171 11.3852 12.5671 11.6758C12.4265 11.9758 12.3028 12.109 12.0815 12.364C11.8603 12.619 11.6503 12.814 11.429 13.0877C11.2265 13.3258 10.9978 13.5808 11.2528 14.0215C11.5078 14.4527 12.389 15.8908 13.6865 17.0458C15.3609 18.5365 16.7184 19.0127 17.204 19.2152C17.5659 19.3652 17.9971 19.3296 18.2615 19.0483C18.5971 18.6865 19.0115 18.0865 19.4334 17.4958C19.7334 17.0721 20.1121 17.0196 20.5096 17.1696C20.9146 17.3102 23.0578 18.3696 23.4984 18.589C23.939 18.8102 24.2296 18.9152 24.3365 19.1008C24.4415 19.2865 24.4415 20.1583 24.0796 21.1821Z" fill="white"/>
</g>
<defs>
<clipPath id="clip0_810_140">
<rect width="30" height="30" fill="white" transform="translate(0.347778)"/>
</clipPath>
</defs>
</svg>
