<svg width="36" height="36" viewBox="0 0 36 36" fill="none" xmlns="http://www.w3.org/2000/svg">
<path fill-rule="evenodd" clip-rule="evenodd" d="M16.7778 7.77C14.3887 7.77 12.0976 8.71903 10.4083 10.4083C8.71901 12.0976 7.76998 14.3888 7.76998 16.7778C7.76998 19.1668 8.71901 21.458 10.4083 23.1472C12.0976 24.8365 14.3887 25.7856 16.7778 25.7856C19.1668 25.7856 21.4579 24.8365 23.1472 23.1472C24.8365 21.458 25.7855 19.1668 25.7855 16.7778C25.7855 14.3888 24.8365 12.0976 23.1472 10.4083C21.4579 8.71903 19.1668 7.77 16.7778 7.77ZM9.31935 9.31937C11.2974 7.34128 13.9803 6.23 16.7778 6.23C19.5752 6.23 22.2581 7.34128 24.2362 9.31937C26.2143 11.2975 27.3255 13.9803 27.3255 16.7778C27.3255 19.3174 26.4096 21.7626 24.7608 23.6718L29.5445 28.4555C29.8452 28.7562 29.8452 29.2438 29.5445 29.5445C29.2437 29.8452 28.7562 29.8452 28.4555 29.5445L23.6718 24.7608C21.7626 26.4097 19.3174 27.3256 16.7778 27.3256C13.9803 27.3256 11.2974 26.2143 9.31935 24.2362C7.34126 22.2581 6.22998 19.5752 6.22998 16.7778C6.22998 13.9803 7.34126 11.2975 9.31935 9.31937Z" fill="white"/>
</svg>
