<svg width="341" height="45" viewBox="0 0 341 45" fill="none" xmlns="http://www.w3.org/2000/svg">
<path d="M0 43.7844V13.2308L13.0944 0H39.2832V43.7844H30.5536V30.69H8.72959V43.7844H0ZM30.5536 21.9604V8.72959H17.4592L8.72959 17.5956V21.9604H30.5536Z" fill="#3E492A"/>
<path d="M45.0128 43.7844V0H79.9312L84.296 4.50118V26.3252L79.9312 30.69H53.7424V43.7844H45.0128ZM75.7028 21.9604V8.72959H53.8788V21.9604H75.7028Z" fill="#3E492A"/>
<path d="M89.7503 43.7844V0H98.48L113.757 21.142L129.306 0H137.763V43.7844H129.034V14.322L117.576 31.0992H110.21L98.48 14.322V43.7844H89.7503Z" fill="#3E492A"/>
<path d="M143.629 43.7844V0H152.358V29.1896L174.182 0H182.912V43.7844H174.182V14.5948L152.358 43.7844H143.629Z" fill="#3E492A"/>
<path d="M188.641 43.7844V35.0548L193.006 30.69L188.641 26.3252V4.50118L193.006 0H227.925V43.7844H219.195V30.69H206.101L197.371 39.4196V43.7844H188.641ZM219.195 21.9604V8.72959H197.371V21.9604H219.195Z" fill="#3E492A"/>
<path d="M266.116 8.866V13.2308H257.387V4.50118L261.751 0H292.441L296.806 4.50118V17.5956L272.391 35.0548H296.806V43.7844H257.523V35.0548L288.077 13.2308V8.72959H266.116V8.866Z" fill="#3E492A"/>
<path d="M306.081 43.7847L301.716 39.4199V30.6903H310.446V35.0551H332.27V24.2795H314.811H301.716V0.136719H339.09V8.86631H310.446V15.5499H336.635L341 19.9147V39.6927L336.635 44.0575H306.081V43.7847Z" fill="#3E492A"/>
</svg>
