<svg width="34" height="34" viewBox="0 0 34 34" fill="none" xmlns="http://www.w3.org/2000/svg">
<g clip-path="url(#clip0_810_200)">
<path d="M17 34C26.3888 34 34 26.3888 34 17C34 7.61116 26.3888 0 17 0C7.61116 0 0 7.61116 0 17C0 26.3888 7.61116 34 17 34Z" fill="#4065D6"/>
<path d="M24.8399 21.8585C24.4417 21.9144 22.5069 21.8585 22.4062 21.8585C21.906 21.8635 21.4238 21.6715 21.0641 21.3239C20.6548 20.9302 20.2857 20.4962 19.8942 20.0869C19.7754 19.9621 19.6476 19.8462 19.5117 19.7402C19.1919 19.4964 18.8765 19.5523 18.7266 19.9281C18.6092 20.3354 18.5284 20.7523 18.485 21.174C18.478 21.3516 18.4009 21.5192 18.2704 21.64C18.14 21.7608 17.967 21.8248 17.7894 21.8182C17.5254 21.8316 17.2615 21.8383 16.9998 21.8316C16.0477 21.8267 15.1104 21.5967 14.2641 21.1606C13.3505 20.65 12.5542 19.9536 11.9266 19.1161C10.9225 17.7901 10.0546 16.3663 9.33634 14.8661C9.29832 14.79 8.5445 13.1862 8.52661 13.1124C8.47987 13.0073 8.47541 12.8883 8.51415 12.78C8.55288 12.6717 8.63184 12.5824 8.73463 12.5308C8.86884 12.4794 11.354 12.5308 11.3942 12.5308C11.5793 12.5291 11.7601 12.5865 11.9102 12.6947C12.0603 12.803 12.1718 12.9564 12.2286 13.1325C12.6882 14.3043 13.3159 15.4029 14.0919 16.3939C14.2001 16.5274 14.3275 16.6442 14.4699 16.7406C14.5066 16.776 14.5521 16.801 14.6017 16.8129C14.6513 16.8249 14.7032 16.8233 14.752 16.8085C14.8008 16.7937 14.8447 16.7661 14.8793 16.7286C14.9139 16.6911 14.9378 16.645 14.9486 16.5952C15.0469 16.2718 15.1047 15.9374 15.1208 15.5998C15.1342 14.9287 15.1208 14.4814 15.0828 13.8103C15.0963 13.5816 15.0191 13.3568 14.8679 13.1847C14.7168 13.0126 14.5038 12.907 14.2753 12.891C14.0784 12.8574 14.0516 12.6964 14.1881 12.5353C14.4498 12.202 14.8121 12.1483 15.2058 12.1282C15.8008 12.0946 16.3981 12.1282 16.9953 12.1282H17.125C17.3872 12.1275 17.6488 12.1538 17.9057 12.2065C18.0559 12.2372 18.1921 12.3157 18.2941 12.4302C18.3961 12.5447 18.4583 12.689 18.4716 12.8417C18.5018 13.0108 18.5152 13.1823 18.5119 13.354C18.4962 14.0854 18.4604 14.8169 18.4515 15.5506C18.4461 15.8404 18.4724 16.1299 18.5298 16.414C18.617 16.8032 18.8832 16.9016 19.1561 16.6175C19.4961 16.2525 19.808 15.8622 20.0888 15.4499C20.5939 14.6992 21.0098 13.8922 21.3281 13.0453C21.5003 12.6114 21.6323 12.5152 22.0998 12.5152H24.737C24.8944 12.5125 25.0512 12.5337 25.2023 12.5778C25.2556 12.592 25.3054 12.617 25.3486 12.6513C25.3919 12.6856 25.4276 12.7284 25.4536 12.777C25.4796 12.8257 25.4954 12.8792 25.4998 12.9342C25.5043 12.9892 25.4974 13.0445 25.4796 13.0967C25.3254 13.6579 25.0608 14.1826 24.7012 14.6402C24.1644 15.3985 23.6007 16.1389 23.0504 16.877C22.9808 16.9736 22.9173 17.0744 22.8603 17.179C22.6545 17.5503 22.6702 17.7606 22.9677 18.0737C23.4463 18.5658 23.9586 19.0289 24.4194 19.5344C24.7592 19.9027 25.0661 20.3002 25.3365 20.7221C25.6765 21.2679 25.4684 21.769 24.8399 21.8585Z" fill="white"/>
</g>
<defs>
<clipPath id="clip0_810_200">
<rect width="34" height="34" fill="white"/>
</clipPath>
</defs>
</svg>
